<?xml version="1.0" encoding="UTF-8" standalone="no"?>
<!DOCTYPE svg PUBLIC "-//W3C//DTD SVG 1.1//EN"
 "http://www.w3.org/Graphics/SVG/1.1/DTD/svg11.dtd">
<!-- Generated by graphviz version 2.48.0 (0)
 -->
<!-- Pages: 1 -->
<svg width="432pt" height="667pt"
 viewBox="0.00 0.00 432.00 667.00" xmlns="http://www.w3.org/2000/svg" xmlns:xlink="http://www.w3.org/1999/xlink">
<g id="graph0" class="graph" transform="scale(1 1) rotate(0) translate(4 663)">
<polygon fill="white" stroke="transparent" points="-4,4 -4,-663 428,-663 428,4 -4,4"/>
<!-- F -->
<g id="node1" class="node">
<title>F</title>
<polygon fill="black" stroke="transparent" points="237,-659 68,-659 68,-623 237,-623 237,-659"/>
<text text-anchor="start" x="76" y="-638.3" font-family="Helvetica,sans-Serif" font-size="14.00" fill="white">Core_with_req_a(</text>
<text text-anchor="start" x="184" y="-638.3" font-family="Helvetica,sans-Serif" font-style="italic" font-size="14.00" fill="white">Req_a</text>
<text text-anchor="start" x="224" y="-638.3" font-family="Helvetica,sans-Serif" font-size="14.00" fill="white">)</text>
</g>
<!-- Core -->
<g id="node7" class="node">
<title>Core</title>
<polygon fill="black" stroke="transparent" points="273.5,-587 217.5,-587 217.5,-551 273.5,-551 273.5,-587"/>
<text text-anchor="middle" x="245.5" y="-565.3" font-family="Helvetica,sans-Serif" font-size="14.00" fill="white">CORE</text>
</g>
<!-- F&#45;&gt;Core -->
<g id="edge1" class="edge">
<title>F&#45;&gt;Core</title>
<path fill="none" stroke="gray" d="M175.49,-622.7C187.31,-613.8 201.89,-602.82 214.68,-593.2"/>
<polygon fill="gray" stroke="gray" points="216.89,-595.91 222.78,-587.1 212.68,-590.32 216.89,-595.91"/>
</g>
<!-- G -->
<g id="node2" class="node">
<title>G</title>
<polygon fill="black" stroke="transparent" points="424,-659 255,-659 255,-623 424,-623 424,-659"/>
<text text-anchor="start" x="263" y="-638.3" font-family="Helvetica,sans-Serif" font-size="14.00" fill="white">Core_with_req_b(</text>
<text text-anchor="start" x="371" y="-638.3" font-family="Helvetica,sans-Serif" font-style="italic" font-size="14.00" fill="white">Req_b</text>
<text text-anchor="start" x="411" y="-638.3" font-family="Helvetica,sans-Serif" font-size="14.00" fill="white">)</text>
</g>
<!-- G&#45;&gt;Core -->
<g id="edge2" class="edge">
<title>G&#45;&gt;Core</title>
<path fill="none" stroke="gray" d="M316.26,-622.7C304.31,-613.8 289.58,-602.82 276.65,-593.2"/>
<polygon fill="gray" stroke="gray" points="278.58,-590.27 268.47,-587.1 274.4,-595.88 278.58,-590.27"/>
</g>
<!-- Operation_f -->
<g id="node3" class="node">
<title>Operation_f</title>
<polygon fill="black" stroke="transparent" points="260.5,-515 144.5,-515 144.5,-479 260.5,-479 260.5,-515"/>
<text text-anchor="start" x="152.5" y="-494.3" font-family="Helvetica,sans-Serif" font-size="14.00" fill="white">Operation(</text>
<text text-anchor="start" x="217.5" y="-494.3" font-family="Helvetica,sans-Serif" font-style="italic" font-size="14.00" fill="white">Core</text>
<text text-anchor="start" x="247.5" y="-494.3" font-family="Helvetica,sans-Serif" font-size="14.00" fill="white">)</text>
</g>
<!-- Operation -->
<g id="node8" class="node">
<title>Operation</title>
<polygon fill="black" stroke="transparent" points="235.5,-443 137.5,-443 137.5,-407 235.5,-407 235.5,-443"/>
<text text-anchor="middle" x="186.5" y="-421.3" font-family="Helvetica,sans-Serif" font-size="14.00" fill="white">OPERATION</text>
</g>
<!-- Operation_f&#45;&gt;Operation -->
<g id="edge4" class="edge">
<title>Operation_f&#45;&gt;Operation</title>
<path fill="none" stroke="gray" d="M198.54,-478.7C196.78,-470.98 194.66,-461.71 192.7,-453.11"/>
<polygon fill="gray" stroke="gray" points="196.05,-452.07 190.41,-443.1 189.23,-453.63 196.05,-452.07"/>
</g>
<!-- Infix_f -->
<g id="node4" class="node">
<title>Infix_f</title>
<polygon fill="black" stroke="transparent" points="155,-371 0,-371 0,-335 155,-335 155,-371"/>
<text text-anchor="start" x="8" y="-350.3" font-family="Helvetica,sans-Serif" font-size="14.00" fill="white">Infix(</text>
<text text-anchor="start" x="38" y="-350.3" font-family="Helvetica,sans-Serif" font-style="italic" font-size="14.00" fill="white">Core</text>
<text text-anchor="start" x="68" y="-350.3" font-family="Helvetica,sans-Serif" font-size="14.00" fill="white">) (</text>
<text text-anchor="start" x="81" y="-350.3" font-family="Helvetica,sans-Serif" font-style="italic" font-size="14.00" fill="white">Operation</text>
<text text-anchor="start" x="142" y="-350.3" font-family="Helvetica,sans-Serif" font-size="14.00" fill="white">)</text>
</g>
<!-- Infix -->
<g id="node9" class="node">
<title>Infix</title>
<polygon fill="black" stroke="transparent" points="130.5,-299 76.5,-299 76.5,-263 130.5,-263 130.5,-299"/>
<text text-anchor="middle" x="103.5" y="-277.3" font-family="Helvetica,sans-Serif" font-size="14.00" fill="white">INFIX</text>
</g>
<!-- Infix_f&#45;&gt;Infix -->
<g id="edge6" class="edge">
<title>Infix_f&#45;&gt;Infix</title>
<path fill="none" stroke="gray" d="M83.93,-334.7C86.86,-326.81 90.39,-317.3 93.64,-308.55"/>
<polygon fill="gray" stroke="gray" points="96.95,-309.7 97.15,-299.1 90.38,-307.26 96.95,-309.7"/>
</g>
<!-- Syntax_f -->
<g id="node5" class="node">
<title>Syntax_f</title>
<polygon fill="black" stroke="transparent" points="383,-371 212,-371 212,-335 383,-335 383,-371"/>
<text text-anchor="start" x="220" y="-350.3" font-family="Helvetica,sans-Serif" font-size="14.00" fill="white">Syntax(</text>
<text text-anchor="start" x="266" y="-350.3" font-family="Helvetica,sans-Serif" font-style="italic" font-size="14.00" fill="white">Core</text>
<text text-anchor="start" x="296" y="-350.3" font-family="Helvetica,sans-Serif" font-size="14.00" fill="white">) (</text>
<text text-anchor="start" x="309" y="-350.3" font-family="Helvetica,sans-Serif" font-style="italic" font-size="14.00" fill="white">Operation</text>
<text text-anchor="start" x="370" y="-350.3" font-family="Helvetica,sans-Serif" font-size="14.00" fill="white">)</text>
</g>
<!-- Syntax -->
<g id="node10" class="node">
<title>Syntax</title>
<polygon fill="black" stroke="transparent" points="308,-299 237,-299 237,-263 308,-263 308,-299"/>
<text text-anchor="middle" x="272.5" y="-277.3" font-family="Helvetica,sans-Serif" font-size="14.00" fill="white">SYNTAX</text>
</g>
<!-- Syntax_f&#45;&gt;Syntax -->
<g id="edge9" class="edge">
<title>Syntax_f&#45;&gt;Syntax</title>
<path fill="none" stroke="gray" d="M291.32,-334.7C288.5,-326.81 285.11,-317.3 281.98,-308.55"/>
<polygon fill="gray" stroke="gray" points="285.27,-307.34 278.61,-299.1 278.68,-309.7 285.27,-307.34"/>
</g>
<!-- Via -->
<g id="node6" class="node">
<title>Via</title>
<polygon fill="black" stroke="transparent" points="362,-227 119,-227 119,-191 362,-191 362,-227"/>
<text text-anchor="start" x="127" y="-206.3" font-family="Helvetica,sans-Serif" font-size="14.00" fill="white">Via(</text>
<text text-anchor="start" x="152" y="-206.3" font-family="Helvetica,sans-Serif" font-style="italic" font-size="14.00" fill="white">Core</text>
<text text-anchor="start" x="182" y="-206.3" font-family="Helvetica,sans-Serif" font-size="14.00" fill="white">) (</text>
<text text-anchor="start" x="195" y="-206.3" font-family="Helvetica,sans-Serif" font-style="italic" font-size="14.00" fill="white">Operation</text>
<text text-anchor="start" x="256" y="-206.3" font-family="Helvetica,sans-Serif" font-size="14.00" fill="white">) (</text>
<text text-anchor="start" x="269" y="-206.3" font-family="Helvetica,sans-Serif" font-style="italic" font-size="14.00" fill="white">Infix</text>
<text text-anchor="start" x="294" y="-206.3" font-family="Helvetica,sans-Serif" font-size="14.00" fill="white">) (</text>
<text text-anchor="start" x="307" y="-206.3" font-family="Helvetica,sans-Serif" font-style="italic" font-size="14.00" fill="white">Syntax</text>
<text text-anchor="start" x="349" y="-206.3" font-family="Helvetica,sans-Serif" font-size="14.00" fill="white">)</text>
</g>
<!-- Api -->
<g id="node11" class="node">
<title>Api</title>
<polygon fill="white" stroke="transparent" points="307.5,-155 173.5,-155 173.5,0 307.5,0 307.5,-155"/>
<polygon fill="black" stroke="transparent" points="181.5,-129.5 181.5,-150.5 299.5,-150.5 299.5,-129.5 181.5,-129.5"/>
<polygon fill="none" stroke="black" points="181.5,-129.5 181.5,-150.5 299.5,-150.5 299.5,-129.5 181.5,-129.5"/>
<text text-anchor="start" x="216.5" y="-136.3" font-family="Helvetica,sans-Serif" font-size="14.00" fill="white">Full API</text>
<polygon fill="none" stroke="black" points="181.5,-108.5 181.5,-129.5 299.5,-129.5 299.5,-108.5 181.5,-108.5"/>
<text text-anchor="start" x="201.5" y="-116.3" font-family="Helvetica,sans-Serif" font-size="14.00">include </text>
<text text-anchor="start" x="248.5" y="-116.3" font-family="Helvetica,sans-Serif" font-weight="bold" font-size="14.00">Core</text>
<polygon fill="none" stroke="black" points="181.5,-87.5 181.5,-108.5 299.5,-108.5 299.5,-87.5 181.5,-87.5"/>
<text text-anchor="start" x="184.5" y="-95.3" font-family="Helvetica,sans-Serif" font-size="14.00">include </text>
<text text-anchor="start" x="231.5" y="-95.3" font-family="Helvetica,sans-Serif" font-weight="bold" font-size="14.00">Operation</text>
<polygon fill="none" stroke="black" points="181.5,-66.5 181.5,-87.5 299.5,-87.5 299.5,-66.5 181.5,-66.5"/>
<text text-anchor="start" x="202" y="-74.3" font-family="Helvetica,sans-Serif" font-size="14.00">module </text>
<text text-anchor="start" x="251" y="-74.3" font-family="Helvetica,sans-Serif" font-weight="bold" font-size="14.00">Infix</text>
<polygon fill="none" stroke="black" points="181.5,-45.5 181.5,-66.5 299.5,-66.5 299.5,-45.5 181.5,-45.5"/>
<text text-anchor="start" x="193.5" y="-53.3" font-family="Helvetica,sans-Serif" font-size="14.00">module </text>
<text text-anchor="start" x="242.5" y="-53.3" font-family="Helvetica,sans-Serif" font-weight="bold" font-size="14.00">Syntax</text>
<polygon fill="none" stroke="black" points="181.5,-24.5 181.5,-45.5 299.5,-45.5 299.5,-24.5 181.5,-24.5"/>
<text text-anchor="start" x="203" y="-32.3" font-family="Helvetica,sans-Serif" font-size="14.00">include </text>
<text text-anchor="start" x="250" y="-32.3" font-family="Helvetica,sans-Serif" font-weight="bold" font-size="14.00">Infix</text>
<polygon fill="none" stroke="black" points="181.5,-3.5 181.5,-24.5 299.5,-24.5 299.5,-3.5 181.5,-3.5"/>
<text text-anchor="start" x="194.5" y="-11.3" font-family="Helvetica,sans-Serif" font-size="14.00">include </text>
<text text-anchor="start" x="241.5" y="-11.3" font-family="Helvetica,sans-Serif" font-weight="bold" font-size="14.00">Syntax</text>
</g>
<!-- Via&#45;&gt;Api -->
<g id="edge15" class="edge">
<title>Via&#45;&gt;Api</title>
<path fill="none" stroke="gray" d="M240.5,-190.8C240.5,-183.71 240.5,-174.91 240.5,-165.39"/>
<polygon fill="gray" stroke="gray" points="244,-165.24 240.5,-155.24 237,-165.24 244,-165.24"/>
</g>
<!-- Core&#45;&gt;Operation_f -->
<g id="edge3" class="edge">
<title>Core&#45;&gt;Operation_f</title>
<path fill="none" stroke="gray" d="M234.87,-550.7C229.87,-542.56 223.81,-532.69 218.29,-523.7"/>
<polygon fill="gray" stroke="gray" points="221.22,-521.79 213.01,-515.1 215.26,-525.46 221.22,-521.79"/>
</g>
<!-- Core&#45;&gt;Infix_f -->
<g id="edge5" class="edge">
<title>Core&#45;&gt;Infix_f</title>
<path fill="none" stroke="gray" d="M217.44,-561.01C192.73,-553.5 157.36,-539.24 135.5,-515 100.88,-476.61 86.53,-416.03 80.88,-381.16"/>
<polygon fill="gray" stroke="gray" points="84.34,-380.59 79.4,-371.21 77.41,-381.62 84.34,-380.59"/>
</g>
<!-- Core&#45;&gt;Syntax_f -->
<g id="edge8" class="edge">
<title>Core&#45;&gt;Syntax_f</title>
<path fill="none" stroke="gray" d="M254.65,-550.77C259.7,-540.61 265.7,-527.36 269.5,-515 283.6,-469.2 291.28,-413.75 294.88,-381.32"/>
<polygon fill="gray" stroke="gray" points="298.37,-381.57 295.95,-371.25 291.41,-380.83 298.37,-381.57"/>
</g>
<!-- Core&#45;&gt;Via -->
<g id="edge11" class="edge">
<title>Core&#45;&gt;Via</title>
<path fill="none" stroke="gray" d="M273.66,-558.64C321.02,-540.92 411.5,-497.68 411.5,-426 411.5,-426 411.5,-426 411.5,-352 411.5,-292.36 349.18,-252.98 299.79,-231.13"/>
<polygon fill="gray" stroke="gray" points="300.99,-227.84 290.42,-227.13 298.24,-234.28 300.99,-227.84"/>
</g>
<!-- Operation&#45;&gt;Infix_f -->
<g id="edge7" class="edge">
<title>Operation&#45;&gt;Infix_f</title>
<path fill="none" stroke="gray" d="M159.84,-406.88C145.72,-397.81 128.19,-386.55 112.94,-376.76"/>
<polygon fill="gray" stroke="gray" points="114.57,-373.65 104.27,-371.19 110.79,-379.54 114.57,-373.65"/>
</g>
<!-- Operation&#45;&gt;Syntax_f -->
<g id="edge10" class="edge">
<title>Operation&#45;&gt;Syntax_f</title>
<path fill="none" stroke="gray" d="M213.65,-406.88C228.03,-397.81 245.88,-386.55 261.41,-376.76"/>
<polygon fill="gray" stroke="gray" points="263.65,-379.48 270.24,-371.19 259.92,-373.56 263.65,-379.48"/>
</g>
<!-- Operation&#45;&gt;Via -->
<g id="edge12" class="edge">
<title>Operation&#45;&gt;Via</title>
<path fill="none" stroke="gray" d="M188.98,-406.81C191.72,-388.8 196.54,-359.72 202.5,-335 210.77,-300.7 223.02,-261.92 231.36,-236.78"/>
<polygon fill="gray" stroke="gray" points="234.71,-237.81 234.56,-227.21 228.07,-235.59 234.71,-237.81"/>
</g>
<!-- Infix&#45;&gt;Via -->
<g id="edge13" class="edge">
<title>Infix&#45;&gt;Via</title>
<path fill="none" stroke="gray" d="M130.57,-266.17C149.81,-256.34 176.04,-242.94 198.05,-231.69"/>
<polygon fill="gray" stroke="gray" points="199.88,-234.69 207.19,-227.02 196.69,-228.45 199.88,-234.69"/>
</g>
<!-- Syntax&#45;&gt;Via -->
<g id="edge14" class="edge">
<title>Syntax&#45;&gt;Via</title>
<path fill="none" stroke="gray" d="M264.59,-262.7C260.95,-254.73 256.55,-245.1 252.51,-236.26"/>
<polygon fill="gray" stroke="gray" points="255.66,-234.74 248.32,-227.1 249.29,-237.65 255.66,-234.74"/>
</g>
</g>
</svg>
