<?xml version="1.0" encoding="UTF-8" standalone="no"?>
<!DOCTYPE svg PUBLIC "-//W3C//DTD SVG 1.1//EN"
 "http://www.w3.org/Graphics/SVG/1.1/DTD/svg11.dtd">
<!-- Generated by graphviz version 2.47.0 (0)
 -->
<!-- Pages: 1 -->
<svg width="1070pt" height="404pt"
 viewBox="0.00 0.00 1070.00 404.00" xmlns="http://www.w3.org/2000/svg" xmlns:xlink="http://www.w3.org/1999/xlink">
<g id="graph0" class="graph" transform="scale(1 1) rotate(0) translate(4 400)">
<polygon fill="white" stroke="transparent" points="-4,4 -4,-400 1066,-400 1066,4 -4,4"/>
<!-- Contravariant -->
<g id="node1" class="node">
<title>Contravariant</title>
<polygon fill="black" stroke="transparent" points="247,-396 149,-396 149,-360 247,-360 247,-396"/>
<text text-anchor="middle" x="198" y="-374.3" font-family="Helvetica,sans-Serif" font-size="14.00" fill="white">Contravariant</text>
</g>
<!-- Profunctor -->
<g id="node17" class="node">
<title>Profunctor</title>
<polygon fill="black" stroke="transparent" points="237.5,-324 158.5,-324 158.5,-288 237.5,-288 237.5,-324"/>
<text text-anchor="middle" x="198" y="-302.3" font-family="Helvetica,sans-Serif" font-size="14.00" fill="white">Profunctor</text>
</g>
<!-- Contravariant&#45;&#45;Profunctor -->
<g id="edge21" class="edge">
<title>Contravariant&#45;&#45;Profunctor</title>
<path fill="none" stroke="gray" d="M198,-359.7C198,-348.85 198,-334.92 198,-324.1"/>
</g>
<!-- Functor -->
<g id="node2" class="node">
<title>Functor</title>
<polygon fill="black" stroke="transparent" points="803,-396 741,-396 741,-360 803,-360 803,-396"/>
<text text-anchor="middle" x="772" y="-374.3" font-family="Helvetica,sans-Serif" font-size="14.00" fill="white">Functor</text>
</g>
<!-- Applicative -->
<g id="node3" class="node">
<title>Applicative</title>
<polygon fill="black" stroke="transparent" points="741,-252 659,-252 659,-216 741,-216 741,-252"/>
<text text-anchor="middle" x="700" y="-230.3" font-family="Helvetica,sans-Serif" font-size="14.00" fill="white">Applicative</text>
</g>
<!-- Functor&#45;&#45;Applicative -->
<g id="edge1" class="edge">
<title>Functor&#45;&#45;Applicative</title>
<path fill="none" stroke="gray" d="M763.32,-359.87C749.48,-332.58 722.57,-279.52 708.72,-252.19"/>
</g>
<!-- Alt -->
<g id="node8" class="node">
<title>Alt</title>
<polygon fill="black" stroke="transparent" points="1062,-324 1008,-324 1008,-288 1062,-288 1062,-324"/>
<text text-anchor="middle" x="1035" y="-302.3" font-family="Helvetica,sans-Serif" font-size="14.00" fill="white">Alt</text>
</g>
<!-- Functor&#45;&#45;Alt -->
<g id="edge6" class="edge">
<title>Functor&#45;&#45;Alt</title>
<path fill="none" stroke="gray" d="M803.32,-371.16C846.7,-362.69 927.29,-345.64 994,-324 998.54,-322.53 1003.29,-320.77 1007.88,-318.95"/>
</g>
<!-- Comonad -->
<g id="node9" class="node">
<title>Comonad</title>
<polygon fill="black" stroke="transparent" points="500,-324 424,-324 424,-288 500,-288 500,-324"/>
<text text-anchor="middle" x="462" y="-302.3" font-family="Helvetica,sans-Serif" font-size="14.00" fill="white">Comonad</text>
</g>
<!-- Functor&#45;&#45;Comonad -->
<g id="edge7" class="edge">
<title>Functor&#45;&#45;Comonad</title>
<path fill="none" stroke="gray" d="M740.86,-369.97C683.74,-357.07 562.41,-329.67 500.34,-315.66"/>
</g>
<!-- Free_selective -->
<g id="node13" class="node">
<title>Free_selective</title>
<polygon fill="black" stroke="transparent" points="864,-324 760,-324 760,-288 864,-288 864,-324"/>
<text text-anchor="middle" x="812" y="-302.3" font-family="Helvetica,sans-Serif" font-size="14.00" fill="white">Free_selective</text>
</g>
<!-- Functor&#45;&#45;Free_selective -->
<g id="edge14" class="edge">
<title>Functor&#45;&#45;Free_selective</title>
<path fill="none" stroke="gray" stroke-dasharray="1,5" d="M781.89,-359.7C788.09,-348.85 796.05,-334.92 802.23,-324.1"/>
</g>
<!-- Free_applicative -->
<g id="node14" class="node">
<title>Free_applicative</title>
<polygon fill="black" stroke="transparent" points="704,-324 588,-324 588,-288 704,-288 704,-324"/>
<text text-anchor="middle" x="646" y="-302.3" font-family="Helvetica,sans-Serif" font-size="14.00" fill="white">Free_applicative</text>
</g>
<!-- Functor&#45;&#45;Free_applicative -->
<g id="edge15" class="edge">
<title>Functor&#45;&#45;Free_applicative</title>
<path fill="none" stroke="gray" stroke-dasharray="1,5" d="M741.18,-359.88C721.65,-349.03 696.49,-335.05 676.94,-324.19"/>
</g>
<!-- Free_monad -->
<g id="node15" class="node">
<title>Free_monad</title>
<polygon fill="black" stroke="transparent" points="1058,-180 964,-180 964,-144 1058,-144 1058,-180"/>
<text text-anchor="middle" x="1011" y="-158.3" font-family="Helvetica,sans-Serif" font-size="14.00" fill="white">Free_monad</text>
</g>
<!-- Functor&#45;&#45;Free_monad -->
<g id="edge16" class="edge">
<title>Functor&#45;&#45;Free_monad</title>
<path fill="none" stroke="gray" stroke-dasharray="1,5" d="M803.24,-376.96C844.8,-375.19 918.01,-365.82 961,-324 1001.6,-284.51 1009.39,-212.74 1010.77,-180.04"/>
</g>
<!-- Functor&#45;&#45;Profunctor -->
<g id="edge22" class="edge">
<title>Functor&#45;&#45;Profunctor</title>
<path fill="none" stroke="gray" d="M740.73,-373.19C643.41,-361.32 345.95,-325.04 237.82,-311.86"/>
</g>
<!-- Bifunctor -->
<g id="node18" class="node">
<title>Bifunctor</title>
<polygon fill="black" stroke="transparent" points="952,-324 882,-324 882,-288 952,-288 952,-324"/>
<text text-anchor="middle" x="917" y="-302.3" font-family="Helvetica,sans-Serif" font-size="14.00" fill="white">Bifunctor</text>
</g>
<!-- Functor&#45;&#45;Bifunctor -->
<g id="edge23" class="edge">
<title>Functor&#45;&#45;Bifunctor</title>
<path fill="none" stroke="gray" d="M803.11,-361.98C826.24,-350.82 857.83,-335.57 881.87,-323.96"/>
</g>
<!-- Selective -->
<g id="node4" class="node">
<title>Selective</title>
<polygon fill="black" stroke="transparent" points="945.5,-180 874.5,-180 874.5,-144 945.5,-144 945.5,-180"/>
<text text-anchor="middle" x="910" y="-158.3" font-family="Helvetica,sans-Serif" font-size="14.00" fill="white">Selective</text>
</g>
<!-- Applicative&#45;&#45;Selective -->
<g id="edge2" class="edge">
<title>Applicative&#45;&#45;Selective</title>
<path fill="none" stroke="gray" d="M741.22,-220.39C774.71,-210 823.1,-194.63 865,-180 868,-178.95 871.09,-177.84 874.2,-176.71"/>
</g>
<!-- Alternative -->
<g id="node6" class="node">
<title>Alternative</title>
<polygon fill="black" stroke="transparent" points="740,-180 660,-180 660,-144 740,-144 740,-180"/>
<text text-anchor="middle" x="700" y="-158.3" font-family="Helvetica,sans-Serif" font-size="14.00" fill="white">Alternative</text>
</g>
<!-- Applicative&#45;&#45;Alternative -->
<g id="edge4" class="edge">
<title>Applicative&#45;&#45;Alternative</title>
<path fill="none" stroke="gray" d="M700,-215.7C700,-204.85 700,-190.92 700,-180.1"/>
</g>
<!-- Traversable -->
<g id="node25" class="node">
<title>Traversable</title>
<polygon fill="black" stroke="transparent" points="676,-36 588,-36 588,0 676,0 676,-36"/>
<text text-anchor="middle" x="632" y="-14.3" font-family="Helvetica,sans-Serif" font-size="14.00" fill="white">Traversable</text>
</g>
<!-- Applicative&#45;&#45;Traversable -->
<g id="edge30" class="edge">
<title>Applicative&#45;&#45;Traversable</title>
<path fill="none" stroke="gray" d="M678.79,-215.82C668.64,-206.36 657.35,-193.77 651,-180 628.74,-131.69 628.99,-66.96 630.65,-36.38"/>
</g>
<!-- Monad -->
<g id="node5" class="node">
<title>Monad</title>
<polygon fill="black" stroke="transparent" points="860.5,-108 801.5,-108 801.5,-72 860.5,-72 860.5,-108"/>
<text text-anchor="middle" x="831" y="-86.3" font-family="Helvetica,sans-Serif" font-size="14.00" fill="white">Monad</text>
</g>
<!-- Selective&#45;&#45;Monad -->
<g id="edge3" class="edge">
<title>Selective&#45;&#45;Monad</title>
<path fill="none" stroke="gray" d="M890.47,-143.7C878.23,-132.85 862.51,-118.92 850.3,-108.1"/>
</g>
<!-- Monad_plus -->
<g id="node7" class="node">
<title>Monad_plus</title>
<polygon fill="black" stroke="transparent" points="785.5,-36 694.5,-36 694.5,0 785.5,0 785.5,-36"/>
<text text-anchor="middle" x="740" y="-14.3" font-family="Helvetica,sans-Serif" font-size="14.00" fill="white">Monad_plus</text>
</g>
<!-- Monad&#45;&#45;Monad_plus -->
<g id="edge5" class="edge">
<title>Monad&#45;&#45;Monad_plus</title>
<path fill="none" stroke="gray" d="M808.51,-71.7C794.4,-60.85 776.29,-46.92 762.24,-36.1"/>
</g>
<!-- State -->
<g id="node19" class="node">
<title>State</title>
<polygon fill="black" stroke="transparent" points="858,-36 804,-36 804,0 858,0 858,-36"/>
<text text-anchor="middle" x="831" y="-14.3" font-family="Helvetica,sans-Serif" font-size="14.00" fill="white">State</text>
</g>
<!-- Monad&#45;&#45;State -->
<g id="edge24" class="edge">
<title>Monad&#45;&#45;State</title>
<path fill="none" stroke="gray" d="M831,-71.7C831,-60.85 831,-46.92 831,-36.1"/>
</g>
<!-- Reader -->
<g id="node20" class="node">
<title>Reader</title>
<polygon fill="black" stroke="transparent" points="937.5,-36 876.5,-36 876.5,0 937.5,0 937.5,-36"/>
<text text-anchor="middle" x="907" y="-14.3" font-family="Helvetica,sans-Serif" font-size="14.00" fill="white">Reader</text>
</g>
<!-- Monad&#45;&#45;Reader -->
<g id="edge25" class="edge">
<title>Monad&#45;&#45;Reader</title>
<path fill="none" stroke="gray" d="M849.79,-71.7C861.57,-60.85 876.69,-46.92 888.43,-36.1"/>
</g>
<!-- Writer -->
<g id="node21" class="node">
<title>Writer</title>
<polygon fill="black" stroke="transparent" points="1010,-36 956,-36 956,0 1010,0 1010,-36"/>
<text text-anchor="middle" x="983" y="-14.3" font-family="Helvetica,sans-Serif" font-size="14.00" fill="white">Writer</text>
</g>
<!-- Monad&#45;&#45;Writer -->
<g id="edge26" class="edge">
<title>Monad&#45;&#45;Writer</title>
<path fill="none" stroke="gray" d="M860.61,-75.6C884.08,-64.94 917.68,-49.62 947,-36 949.88,-34.66 952.89,-33.25 955.89,-31.85"/>
</g>
<!-- Monad&#45;&#45;Traversable -->
<g id="edge31" class="edge">
<title>Monad&#45;&#45;Traversable</title>
<path fill="none" stroke="gray" d="M801.21,-78.52C768.03,-66.85 714.07,-47.87 676.02,-34.48"/>
</g>
<!-- Store -->
<g id="node22" class="node">
<title>Store</title>
<polygon fill="black" stroke="transparent" points="380,-252 326,-252 326,-216 380,-216 380,-252"/>
<text text-anchor="middle" x="353" y="-230.3" font-family="Helvetica,sans-Serif" font-size="14.00" fill="white">Store</text>
</g>
<!-- Comonad&#45;&#45;Store -->
<g id="edge27" class="edge">
<title>Comonad&#45;&#45;Store</title>
<path fill="none" stroke="gray" d="M435.34,-287.88C418.44,-277.03 396.68,-263.05 379.77,-252.19"/>
</g>
<!-- Env -->
<g id="node23" class="node">
<title>Env</title>
<polygon fill="black" stroke="transparent" points="452,-252 398,-252 398,-216 452,-216 452,-252"/>
<text text-anchor="middle" x="425" y="-230.3" font-family="Helvetica,sans-Serif" font-size="14.00" fill="white">Env</text>
</g>
<!-- Comonad&#45;&#45;Env -->
<g id="edge28" class="edge">
<title>Comonad&#45;&#45;Env</title>
<path fill="none" stroke="gray" d="M452.85,-287.7C447.12,-276.85 439.76,-262.92 434.04,-252.1"/>
</g>
<!-- Traced -->
<g id="node24" class="node">
<title>Traced</title>
<polygon fill="black" stroke="transparent" points="529.5,-252 470.5,-252 470.5,-216 529.5,-216 529.5,-252"/>
<text text-anchor="middle" x="500" y="-230.3" font-family="Helvetica,sans-Serif" font-size="14.00" fill="white">Traced</text>
</g>
<!-- Comonad&#45;&#45;Traced -->
<g id="edge29" class="edge">
<title>Comonad&#45;&#45;Traced</title>
<path fill="none" stroke="gray" d="M471.39,-287.7C477.28,-276.85 484.85,-262.92 490.71,-252.1"/>
</g>
<!-- Semigroup -->
<g id="node10" class="node">
<title>Semigroup</title>
<polygon fill="black" stroke="transparent" points="630.5,-252 547.5,-252 547.5,-216 630.5,-216 630.5,-252"/>
<text text-anchor="middle" x="589" y="-230.3" font-family="Helvetica,sans-Serif" font-size="14.00" fill="white">Semigroup</text>
</g>
<!-- Semigroup&#45;&#45;Alt -->
<g id="edge11" class="edge">
<title>Semigroup&#45;&#45;Alt</title>
<path fill="none" stroke="gray" stroke-dasharray="1,5" d="M630.8,-247.58C637.19,-249.23 643.74,-250.77 650,-252 786.55,-278.76 823.87,-264.39 961,-288 976.59,-290.68 993.82,-294.59 1007.73,-297.98"/>
</g>
<!-- Monoid -->
<g id="node11" class="node">
<title>Monoid</title>
<polygon fill="black" stroke="transparent" points="583,-180 521,-180 521,-144 583,-144 583,-180"/>
<text text-anchor="middle" x="552" y="-158.3" font-family="Helvetica,sans-Serif" font-size="14.00" fill="white">Monoid</text>
</g>
<!-- Semigroup&#45;&#45;Monoid -->
<g id="edge8" class="edge">
<title>Semigroup&#45;&#45;Monoid</title>
<path fill="none" stroke="gray" d="M579.85,-215.7C574.12,-204.85 566.76,-190.92 561.04,-180.1"/>
</g>
<!-- Arrow_alt -->
<g id="node32" class="node">
<title>Arrow_alt</title>
<polygon fill="black" stroke="transparent" points="442,-108 368,-108 368,-72 442,-72 442,-108"/>
<text text-anchor="middle" x="405" y="-86.3" font-family="Helvetica,sans-Serif" font-size="14.00" fill="white">Arrow_alt</text>
</g>
<!-- Semigroup&#45;&#45;Arrow_alt -->
<g id="edge46" class="edge">
<title>Semigroup&#45;&#45;Arrow_alt</title>
<path fill="none" stroke="gray" stroke-dasharray="1,5" d="M562.92,-215.91C547.81,-205.79 528.56,-192.54 512,-180 480.61,-156.22 445.81,-126.64 424.67,-108.29"/>
</g>
<!-- Monoid&#45;&#45;Monad -->
<g id="edge12" class="edge">
<title>Monoid&#45;&#45;Monad</title>
<path fill="none" stroke="gray" stroke-dasharray="1,5" d="M583.19,-153.17C637.37,-139.58 748.14,-111.79 801.27,-98.46"/>
</g>
<!-- Monoid&#45;&#45;Alternative -->
<g id="edge9" class="edge">
<title>Monoid&#45;&#45;Alternative</title>
<path fill="none" stroke="gray" stroke-dasharray="1,5" d="M583.22,-162C608.76,-162 634.31,-162 659.86,-162"/>
</g>
<!-- Monoid&#45;&#45;Monad_plus -->
<g id="edge10" class="edge">
<title>Monoid&#45;&#45;Monad_plus</title>
<path fill="none" stroke="gray" stroke-dasharray="1,5" d="M574.68,-143.87C610.81,-116.58 681.06,-63.52 717.24,-36.19"/>
</g>
<!-- Foldable -->
<g id="node12" class="node">
<title>Foldable</title>
<polygon fill="black" stroke="transparent" points="566,-108 498,-108 498,-72 566,-72 566,-108"/>
<text text-anchor="middle" x="532" y="-86.3" font-family="Helvetica,sans-Serif" font-size="14.00" fill="white">Foldable</text>
</g>
<!-- Monoid&#45;&#45;Foldable -->
<g id="edge13" class="edge">
<title>Monoid&#45;&#45;Foldable</title>
<path fill="none" stroke="gray" d="M547.06,-143.7C543.96,-132.85 539.98,-118.92 536.89,-108.1"/>
</g>
<!-- Category -->
<g id="node26" class="node">
<title>Category</title>
<polygon fill="black" stroke="transparent" points="233.5,-252 162.5,-252 162.5,-216 233.5,-216 233.5,-252"/>
<text text-anchor="middle" x="198" y="-230.3" font-family="Helvetica,sans-Serif" font-size="14.00" fill="white">Category</text>
</g>
<!-- Monoid&#45;&#45;Category -->
<g id="edge32" class="edge">
<title>Monoid&#45;&#45;Category</title>
<path fill="none" stroke="gray" stroke-dasharray="1,5" d="M520.87,-166.34C464.67,-172.81 342.79,-188.86 243,-216 239.94,-216.83 236.79,-217.79 233.66,-218.82"/>
</g>
<!-- Arrow_plus -->
<g id="node33" class="node">
<title>Arrow_plus</title>
<polygon fill="black" stroke="transparent" points="415,-36 331,-36 331,0 415,0 415,-36"/>
<text text-anchor="middle" x="373" y="-14.3" font-family="Helvetica,sans-Serif" font-size="14.00" fill="white">Arrow_plus</text>
</g>
<!-- Monoid&#45;&#45;Arrow_plus -->
<g id="edge45" class="edge">
<title>Monoid&#45;&#45;Arrow_plus</title>
<path fill="none" stroke="gray" stroke-dasharray="1,5" d="M531.02,-143.88C518.64,-133.64 502.75,-120.28 489,-108 471.65,-92.5 469.12,-86.59 451,-72 434.93,-59.07 415.78,-46.03 400.48,-36.12"/>
</g>
<!-- Free_selective&#45;&#45;Selective -->
<g id="edge17" class="edge">
<title>Free_selective&#45;&#45;Selective</title>
<path fill="none" stroke="gray" d="M823.82,-287.87C842.66,-260.58 879.27,-207.52 898.14,-180.19"/>
</g>
<!-- Free_applicative&#45;&#45;Applicative -->
<g id="edge18" class="edge">
<title>Free_applicative&#45;&#45;Applicative</title>
<path fill="none" stroke="gray" d="M659.35,-287.7C667.72,-276.85 678.46,-262.92 686.81,-252.1"/>
</g>
<!-- Free_monad&#45;&#45;Monad -->
<g id="edge19" class="edge">
<title>Free_monad&#45;&#45;Monad</title>
<path fill="none" stroke="gray" d="M966.97,-143.88C933.87,-131 889.44,-113.72 860.51,-102.48"/>
</g>
<!-- Freer_monad -->
<g id="node16" class="node">
<title>Freer_monad</title>
<polygon fill="black" stroke="transparent" points="856,-180 758,-180 758,-144 856,-144 856,-180"/>
<text text-anchor="middle" x="807" y="-158.3" font-family="Helvetica,sans-Serif" font-size="14.00" fill="white">Freer_monad</text>
</g>
<!-- Freer_monad&#45;&#45;Monad -->
<g id="edge20" class="edge">
<title>Freer_monad&#45;&#45;Monad</title>
<path fill="none" stroke="gray" d="M812.93,-143.7C816.65,-132.85 821.43,-118.92 825.14,-108.1"/>
</g>
<!-- Strong -->
<g id="node28" class="node">
<title>Strong</title>
<polygon fill="black" stroke="transparent" points="308,-252 252,-252 252,-216 308,-216 308,-252"/>
<text text-anchor="middle" x="280" y="-230.3" font-family="Helvetica,sans-Serif" font-size="14.00" fill="white">Strong</text>
</g>
<!-- Profunctor&#45;&#45;Strong -->
<g id="edge34" class="edge">
<title>Profunctor&#45;&#45;Strong</title>
<path fill="none" stroke="gray" d="M218.27,-287.7C230.98,-276.85 247.3,-262.92 259.96,-252.1"/>
</g>
<!-- Choice -->
<g id="node29" class="node">
<title>Choice</title>
<polygon fill="black" stroke="transparent" points="67.5,-252 8.5,-252 8.5,-216 67.5,-216 67.5,-252"/>
<text text-anchor="middle" x="38" y="-230.3" font-family="Helvetica,sans-Serif" font-size="14.00" fill="white">Choice</text>
</g>
<!-- Profunctor&#45;&#45;Choice -->
<g id="edge35" class="edge">
<title>Profunctor&#45;&#45;Choice</title>
<path fill="none" stroke="gray" d="M158.39,-287.92C134.5,-277.59 103.47,-264.11 76,-252 73.35,-250.83 70.61,-249.62 67.86,-248.39"/>
</g>
<!-- Closed -->
<g id="node30" class="node">
<title>Closed</title>
<polygon fill="black" stroke="transparent" points="144.5,-252 85.5,-252 85.5,-216 144.5,-216 144.5,-252"/>
<text text-anchor="middle" x="115" y="-230.3" font-family="Helvetica,sans-Serif" font-size="14.00" fill="white">Closed</text>
</g>
<!-- Profunctor&#45;&#45;Closed -->
<g id="edge36" class="edge">
<title>Profunctor&#45;&#45;Closed</title>
<path fill="none" stroke="gray" d="M177.48,-287.7C164.62,-276.85 148.1,-262.92 135.28,-252.1"/>
</g>
<!-- Arrow -->
<g id="node27" class="node">
<title>Arrow</title>
<polygon fill="black" stroke="transparent" points="296,-180 242,-180 242,-144 296,-144 296,-180"/>
<text text-anchor="middle" x="269" y="-158.3" font-family="Helvetica,sans-Serif" font-size="14.00" fill="white">Arrow</text>
</g>
<!-- Category&#45;&#45;Arrow -->
<g id="edge33" class="edge">
<title>Category&#45;&#45;Arrow</title>
<path fill="none" stroke="gray" d="M215.55,-215.7C226.56,-204.85 240.68,-190.92 251.65,-180.1"/>
</g>
<!-- Arrow_zero -->
<g id="node31" class="node">
<title>Arrow_zero</title>
<polygon fill="black" stroke="transparent" points="312,-108 226,-108 226,-72 312,-72 312,-108"/>
<text text-anchor="middle" x="269" y="-86.3" font-family="Helvetica,sans-Serif" font-size="14.00" fill="white">Arrow_zero</text>
</g>
<!-- Arrow&#45;&#45;Arrow_zero -->
<g id="edge38" class="edge">
<title>Arrow&#45;&#45;Arrow_zero</title>
<path fill="none" stroke="gray" d="M269,-143.7C269,-132.85 269,-118.92 269,-108.1"/>
</g>
<!-- Arrow&#45;&#45;Arrow_alt -->
<g id="edge39" class="edge">
<title>Arrow&#45;&#45;Arrow_alt</title>
<path fill="none" stroke="gray" d="M296.19,-147C317.9,-135.83 348.41,-120.13 371.59,-108.19"/>
</g>
<!-- Arrow&#45;&#45;Arrow_plus -->
<g id="edge40" class="edge">
<title>Arrow&#45;&#45;Arrow_plus</title>
<path fill="none" stroke="gray" d="M287.98,-143.86C298.39,-133.95 311.14,-120.91 321,-108 338.82,-84.68 355.15,-54.71 364.58,-36.19"/>
</g>
<!-- Arrow_choice -->
<g id="node34" class="node">
<title>Arrow_choice</title>
<polygon fill="black" stroke="transparent" points="98,-108 0,-108 0,-72 98,-72 98,-108"/>
<text text-anchor="middle" x="49" y="-86.3" font-family="Helvetica,sans-Serif" font-size="14.00" fill="white">Arrow_choice</text>
</g>
<!-- Arrow&#45;&#45;Arrow_choice -->
<g id="edge41" class="edge">
<title>Arrow&#45;&#45;Arrow_choice</title>
<path fill="none" stroke="gray" d="M241.58,-152.28C205.76,-140.88 142.4,-120.72 98.17,-106.65"/>
</g>
<!-- Arrow_apply -->
<g id="node35" class="node">
<title>Arrow_apply</title>
<polygon fill="black" stroke="transparent" points="208,-108 116,-108 116,-72 208,-72 208,-108"/>
<text text-anchor="middle" x="162" y="-86.3" font-family="Helvetica,sans-Serif" font-size="14.00" fill="white">Arrow_apply</text>
</g>
<!-- Arrow&#45;&#45;Arrow_apply -->
<g id="edge42" class="edge">
<title>Arrow&#45;&#45;Arrow_apply</title>
<path fill="none" stroke="gray" d="M242.82,-143.88C226.24,-133.03 204.88,-119.05 188.28,-108.19"/>
</g>
<!-- Strong&#45;&#45;Arrow -->
<g id="edge37" class="edge">
<title>Strong&#45;&#45;Arrow</title>
<path fill="none" stroke="gray" d="M277.28,-215.7C275.58,-204.85 273.39,-190.92 271.69,-180.1"/>
</g>
<!-- Arrow_zero&#45;&#45;Arrow_plus -->
<g id="edge43" class="edge">
<title>Arrow_zero&#45;&#45;Arrow_plus</title>
<path fill="none" stroke="gray" stroke-dasharray="1,5" d="M294.44,-71.88C310.56,-61.03 331.33,-47.05 347.46,-36.19"/>
</g>
<!-- Arrow_alt&#45;&#45;Arrow_plus -->
<g id="edge44" class="edge">
<title>Arrow_alt&#45;&#45;Arrow_plus</title>
<path fill="none" stroke="gray" stroke-dasharray="1,5" d="M397.09,-71.7C392.13,-60.85 385.76,-46.92 380.82,-36.1"/>
</g>
</g>
</svg>
