<?xml version="1.0" encoding="UTF-8" standalone="no"?>
<!DOCTYPE svg PUBLIC "-//W3C//DTD SVG 1.1//EN"
 "http://www.w3.org/Graphics/SVG/1.1/DTD/svg11.dtd">
<!-- Generated by graphviz version 2.48.0 (0)
 -->
<!-- Pages: 1 -->
<svg width="972pt" height="404pt"
 viewBox="0.00 0.00 972.00 404.00" xmlns="http://www.w3.org/2000/svg" xmlns:xlink="http://www.w3.org/1999/xlink">
<g id="graph0" class="graph" transform="scale(1 1) rotate(0) translate(4 400)">
<polygon fill="white" stroke="transparent" points="-4,4 -4,-400 968,-400 968,4 -4,4"/>
<!-- Contravariant -->
<g id="node1" class="node">
<title>Contravariant</title>
<polygon fill="black" stroke="transparent" points="214,-396 116,-396 116,-360 214,-360 214,-396"/>
<text text-anchor="middle" x="165" y="-374.3" font-family="Helvetica,sans-Serif" font-size="14.00" fill="white">Contravariant</text>
</g>
<!-- Divisible -->
<g id="node2" class="node">
<title>Divisible</title>
<polygon fill="black" stroke="transparent" points="152.5,-324 85.5,-324 85.5,-288 152.5,-288 152.5,-324"/>
<text text-anchor="middle" x="119" y="-302.3" font-family="Helvetica,sans-Serif" font-size="14.00" fill="white">Divisible</text>
</g>
<!-- Contravariant&#45;&#45;Divisible -->
<g id="edge21" class="edge">
<title>Contravariant&#45;&#45;Divisible</title>
<path fill="none" stroke="gray" d="M153.63,-359.7C146.5,-348.85 137.35,-334.92 130.24,-324.1"/>
</g>
<!-- Profunctor -->
<g id="node18" class="node">
<title>Profunctor</title>
<polygon fill="black" stroke="transparent" points="249.5,-324 170.5,-324 170.5,-288 249.5,-288 249.5,-324"/>
<text text-anchor="middle" x="210" y="-302.3" font-family="Helvetica,sans-Serif" font-size="14.00" fill="white">Profunctor</text>
</g>
<!-- Contravariant&#45;&#45;Profunctor -->
<g id="edge22" class="edge">
<title>Contravariant&#45;&#45;Profunctor</title>
<path fill="none" stroke="gray" d="M176.12,-359.7C183.1,-348.85 192.05,-334.92 199,-324.1"/>
</g>
<!-- Functor -->
<g id="node3" class="node">
<title>Functor</title>
<polygon fill="black" stroke="transparent" points="569,-396 507,-396 507,-360 569,-360 569,-396"/>
<text text-anchor="middle" x="538" y="-374.3" font-family="Helvetica,sans-Serif" font-size="14.00" fill="white">Functor</text>
</g>
<!-- Applicative -->
<g id="node4" class="node">
<title>Applicative</title>
<polygon fill="black" stroke="transparent" points="898,-252 816,-252 816,-216 898,-216 898,-252"/>
<text text-anchor="middle" x="857" y="-230.3" font-family="Helvetica,sans-Serif" font-size="14.00" fill="white">Applicative</text>
</g>
<!-- Functor&#45;&#45;Applicative -->
<g id="edge1" class="edge">
<title>Functor&#45;&#45;Applicative</title>
<path fill="none" stroke="gray" d="M569.16,-369.96C604.46,-361.41 663.29,-345.44 711,-324 756.49,-303.56 805.15,-271.62 833.23,-252.07"/>
</g>
<!-- Alt -->
<g id="node9" class="node">
<title>Alt</title>
<polygon fill="black" stroke="transparent" points="538,-324 484,-324 484,-288 538,-288 538,-324"/>
<text text-anchor="middle" x="511" y="-302.3" font-family="Helvetica,sans-Serif" font-size="14.00" fill="white">Alt</text>
</g>
<!-- Functor&#45;&#45;Alt -->
<g id="edge6" class="edge">
<title>Functor&#45;&#45;Alt</title>
<path fill="none" stroke="gray" d="M531.33,-359.7C527.14,-348.85 521.77,-334.92 517.6,-324.1"/>
</g>
<!-- Comonad -->
<g id="node10" class="node">
<title>Comonad</title>
<polygon fill="black" stroke="transparent" points="702,-324 626,-324 626,-288 702,-288 702,-324"/>
<text text-anchor="middle" x="664" y="-302.3" font-family="Helvetica,sans-Serif" font-size="14.00" fill="white">Comonad</text>
</g>
<!-- Functor&#45;&#45;Comonad -->
<g id="edge7" class="edge">
<title>Functor&#45;&#45;Comonad</title>
<path fill="none" stroke="gray" d="M568.82,-359.88C588.35,-349.03 613.51,-335.05 633.06,-324.19"/>
</g>
<!-- Free_selective -->
<g id="node14" class="node">
<title>Free_selective</title>
<polygon fill="black" stroke="transparent" points="466,-324 362,-324 362,-288 466,-288 466,-324"/>
<text text-anchor="middle" x="414" y="-302.3" font-family="Helvetica,sans-Serif" font-size="14.00" fill="white">Free_selective</text>
</g>
<!-- Functor&#45;&#45;Free_selective -->
<g id="edge14" class="edge">
<title>Functor&#45;&#45;Free_selective</title>
<path fill="none" stroke="gray" stroke-dasharray="1,5" d="M507.67,-359.88C488.45,-349.03 463.69,-335.05 444.45,-324.19"/>
</g>
<!-- Free_applicative -->
<g id="node15" class="node">
<title>Free_applicative</title>
<polygon fill="black" stroke="transparent" points="904,-324 788,-324 788,-288 904,-288 904,-324"/>
<text text-anchor="middle" x="846" y="-302.3" font-family="Helvetica,sans-Serif" font-size="14.00" fill="white">Free_applicative</text>
</g>
<!-- Functor&#45;&#45;Free_applicative -->
<g id="edge15" class="edge">
<title>Functor&#45;&#45;Free_applicative</title>
<path fill="none" stroke="gray" stroke-dasharray="1,5" d="M569.23,-369.9C620.38,-358.28 722.83,-334.99 787.72,-320.25"/>
</g>
<!-- Free_monad -->
<g id="node16" class="node">
<title>Free_monad</title>
<polygon fill="black" stroke="transparent" points="613,-180 519,-180 519,-144 613,-144 613,-180"/>
<text text-anchor="middle" x="566" y="-158.3" font-family="Helvetica,sans-Serif" font-size="14.00" fill="white">Free_monad</text>
</g>
<!-- Functor&#45;&#45;Free_monad -->
<g id="edge16" class="edge">
<title>Functor&#45;&#45;Free_monad</title>
<path fill="none" stroke="gray" stroke-dasharray="1,5" d="M541.14,-359.85C542.98,-349.49 545.27,-336.01 547,-324 554.49,-271.9 561.18,-210.01 564.24,-180.43"/>
</g>
<!-- Functor&#45;&#45;Profunctor -->
<g id="edge23" class="edge">
<title>Functor&#45;&#45;Profunctor</title>
<path fill="none" stroke="gray" d="M506.64,-372.05C455.62,-363.73 351.64,-345.73 265,-324 259.96,-322.74 254.7,-321.28 249.51,-319.77"/>
</g>
<!-- Bifunctor -->
<g id="node19" class="node">
<title>Bifunctor</title>
<polygon fill="black" stroke="transparent" points="344,-324 274,-324 274,-288 344,-288 344,-324"/>
<text text-anchor="middle" x="309" y="-302.3" font-family="Helvetica,sans-Serif" font-size="14.00" fill="white">Bifunctor</text>
</g>
<!-- Functor&#45;&#45;Bifunctor -->
<g id="edge24" class="edge">
<title>Functor&#45;&#45;Bifunctor</title>
<path fill="none" stroke="gray" d="M506.97,-369.02C470.01,-359.31 406.53,-341.97 353,-324 350.21,-323.06 347.33,-322.05 344.44,-321.01"/>
</g>
<!-- Selective -->
<g id="node5" class="node">
<title>Selective</title>
<polygon fill="black" stroke="transparent" points="702.5,-180 631.5,-180 631.5,-144 702.5,-144 702.5,-180"/>
<text text-anchor="middle" x="667" y="-158.3" font-family="Helvetica,sans-Serif" font-size="14.00" fill="white">Selective</text>
</g>
<!-- Applicative&#45;&#45;Selective -->
<g id="edge2" class="edge">
<title>Applicative&#45;&#45;Selective</title>
<path fill="none" stroke="gray" d="M815.71,-218.04C786.67,-207.49 746.92,-192.98 712,-180 709.03,-178.89 705.94,-177.74 702.85,-176.58"/>
</g>
<!-- Alternative -->
<g id="node7" class="node">
<title>Alternative</title>
<polygon fill="black" stroke="transparent" points="964,-180 884,-180 884,-144 964,-144 964,-180"/>
<text text-anchor="middle" x="924" y="-158.3" font-family="Helvetica,sans-Serif" font-size="14.00" fill="white">Alternative</text>
</g>
<!-- Applicative&#45;&#45;Alternative -->
<g id="edge4" class="edge">
<title>Applicative&#45;&#45;Alternative</title>
<path fill="none" stroke="gray" d="M873.56,-215.7C883.95,-204.85 897.28,-190.92 907.63,-180.1"/>
</g>
<!-- Traversable -->
<g id="node26" class="node">
<title>Traversable</title>
<polygon fill="black" stroke="transparent" points="900,-36 812,-36 812,0 900,0 900,-36"/>
<text text-anchor="middle" x="856" y="-14.3" font-family="Helvetica,sans-Serif" font-size="14.00" fill="white">Traversable</text>
</g>
<!-- Applicative&#45;&#45;Traversable -->
<g id="edge31" class="edge">
<title>Applicative&#45;&#45;Traversable</title>
<path fill="none" stroke="gray" d="M856.92,-215.85C856.73,-175.78 856.27,-76.38 856.08,-36.23"/>
</g>
<!-- Monad -->
<g id="node6" class="node">
<title>Monad</title>
<polygon fill="black" stroke="transparent" points="686.5,-108 627.5,-108 627.5,-72 686.5,-72 686.5,-108"/>
<text text-anchor="middle" x="657" y="-86.3" font-family="Helvetica,sans-Serif" font-size="14.00" fill="white">Monad</text>
</g>
<!-- Selective&#45;&#45;Monad -->
<g id="edge3" class="edge">
<title>Selective&#45;&#45;Monad</title>
<path fill="none" stroke="gray" d="M664.53,-143.7C662.98,-132.85 660.99,-118.92 659.44,-108.1"/>
</g>
<!-- Monad_plus -->
<g id="node8" class="node">
<title>Monad_plus</title>
<polygon fill="black" stroke="transparent" points="793.5,-36 702.5,-36 702.5,0 793.5,0 793.5,-36"/>
<text text-anchor="middle" x="748" y="-14.3" font-family="Helvetica,sans-Serif" font-size="14.00" fill="white">Monad_plus</text>
</g>
<!-- Monad&#45;&#45;Monad_plus -->
<g id="edge5" class="edge">
<title>Monad&#45;&#45;Monad_plus</title>
<path fill="none" stroke="gray" d="M679.49,-71.7C693.6,-60.85 711.71,-46.92 725.76,-36.1"/>
</g>
<!-- State -->
<g id="node20" class="node">
<title>State</title>
<polygon fill="black" stroke="transparent" points="532,-36 478,-36 478,0 532,0 532,-36"/>
<text text-anchor="middle" x="505" y="-14.3" font-family="Helvetica,sans-Serif" font-size="14.00" fill="white">State</text>
</g>
<!-- Monad&#45;&#45;State -->
<g id="edge25" class="edge">
<title>Monad&#45;&#45;State</title>
<path fill="none" stroke="gray" d="M627.33,-75.34C599.69,-62.61 558.81,-43.78 532.04,-31.45"/>
</g>
<!-- Reader -->
<g id="node21" class="node">
<title>Reader</title>
<polygon fill="black" stroke="transparent" points="611.5,-36 550.5,-36 550.5,0 611.5,0 611.5,-36"/>
<text text-anchor="middle" x="581" y="-14.3" font-family="Helvetica,sans-Serif" font-size="14.00" fill="white">Reader</text>
</g>
<!-- Monad&#45;&#45;Reader -->
<g id="edge26" class="edge">
<title>Monad&#45;&#45;Reader</title>
<path fill="none" stroke="gray" d="M638.21,-71.7C626.43,-60.85 611.31,-46.92 599.57,-36.1"/>
</g>
<!-- Writer -->
<g id="node22" class="node">
<title>Writer</title>
<polygon fill="black" stroke="transparent" points="684,-36 630,-36 630,0 684,0 684,-36"/>
<text text-anchor="middle" x="657" y="-14.3" font-family="Helvetica,sans-Serif" font-size="14.00" fill="white">Writer</text>
</g>
<!-- Monad&#45;&#45;Writer -->
<g id="edge27" class="edge">
<title>Monad&#45;&#45;Writer</title>
<path fill="none" stroke="gray" d="M657,-71.7C657,-60.85 657,-46.92 657,-36.1"/>
</g>
<!-- Monad&#45;&#45;Traversable -->
<g id="edge32" class="edge">
<title>Monad&#45;&#45;Traversable</title>
<path fill="none" stroke="gray" d="M686.79,-78.52C719.97,-66.85 773.93,-47.87 811.98,-34.48"/>
</g>
<!-- Store -->
<g id="node23" class="node">
<title>Store</title>
<polygon fill="black" stroke="transparent" points="798,-252 744,-252 744,-216 798,-216 798,-252"/>
<text text-anchor="middle" x="771" y="-230.3" font-family="Helvetica,sans-Serif" font-size="14.00" fill="white">Store</text>
</g>
<!-- Comonad&#45;&#45;Store -->
<g id="edge28" class="edge">
<title>Comonad&#45;&#45;Store</title>
<path fill="none" stroke="gray" d="M690.18,-287.88C706.76,-277.03 728.12,-263.05 744.72,-252.19"/>
</g>
<!-- Env -->
<g id="node24" class="node">
<title>Env</title>
<polygon fill="black" stroke="transparent" points="648,-252 594,-252 594,-216 648,-216 648,-252"/>
<text text-anchor="middle" x="621" y="-230.3" font-family="Helvetica,sans-Serif" font-size="14.00" fill="white">Env</text>
</g>
<!-- Comonad&#45;&#45;Env -->
<g id="edge29" class="edge">
<title>Comonad&#45;&#45;Env</title>
<path fill="none" stroke="gray" d="M653.37,-287.7C646.71,-276.85 638.15,-262.92 631.51,-252.1"/>
</g>
<!-- Traced -->
<g id="node25" class="node">
<title>Traced</title>
<polygon fill="black" stroke="transparent" points="725.5,-252 666.5,-252 666.5,-216 725.5,-216 725.5,-252"/>
<text text-anchor="middle" x="696" y="-230.3" font-family="Helvetica,sans-Serif" font-size="14.00" fill="white">Traced</text>
</g>
<!-- Comonad&#45;&#45;Traced -->
<g id="edge30" class="edge">
<title>Comonad&#45;&#45;Traced</title>
<path fill="none" stroke="gray" d="M671.91,-287.7C676.87,-276.85 683.24,-262.92 688.18,-252.1"/>
</g>
<!-- Semigroup -->
<g id="node11" class="node">
<title>Semigroup</title>
<polygon fill="black" stroke="transparent" points="499.5,-252 416.5,-252 416.5,-216 499.5,-216 499.5,-252"/>
<text text-anchor="middle" x="458" y="-230.3" font-family="Helvetica,sans-Serif" font-size="14.00" fill="white">Semigroup</text>
</g>
<!-- Semigroup&#45;&#45;Alt -->
<g id="edge11" class="edge">
<title>Semigroup&#45;&#45;Alt</title>
<path fill="none" stroke="gray" stroke-dasharray="1,5" d="M470.95,-252.1C479.14,-262.92 489.68,-276.85 497.9,-287.7"/>
</g>
<!-- Monoid -->
<g id="node12" class="node">
<title>Monoid</title>
<polygon fill="black" stroke="transparent" points="501,-180 439,-180 439,-144 501,-144 501,-180"/>
<text text-anchor="middle" x="470" y="-158.3" font-family="Helvetica,sans-Serif" font-size="14.00" fill="white">Monoid</text>
</g>
<!-- Semigroup&#45;&#45;Monoid -->
<g id="edge8" class="edge">
<title>Semigroup&#45;&#45;Monoid</title>
<path fill="none" stroke="gray" d="M460.97,-215.7C462.83,-204.85 465.21,-190.92 467.07,-180.1"/>
</g>
<!-- Arrow_alt -->
<g id="node33" class="node">
<title>Arrow_alt</title>
<polygon fill="black" stroke="transparent" points="442,-108 368,-108 368,-72 442,-72 442,-108"/>
<text text-anchor="middle" x="405" y="-86.3" font-family="Helvetica,sans-Serif" font-size="14.00" fill="white">Arrow_alt</text>
</g>
<!-- Semigroup&#45;&#45;Arrow_alt -->
<g id="edge47" class="edge">
<title>Semigroup&#45;&#45;Arrow_alt</title>
<path fill="none" stroke="gray" stroke-dasharray="1,5" d="M447.71,-215.78C441.94,-205.62 434.94,-192.37 430,-180 420.3,-155.71 412.82,-126.27 408.66,-108.08"/>
</g>
<!-- Monoid&#45;&#45;Monad -->
<g id="edge12" class="edge">
<title>Monoid&#45;&#45;Monad</title>
<path fill="none" stroke="gray" stroke-dasharray="1,5" d="M501.37,-147.47C504.28,-146.27 507.19,-145.1 510,-144 553.98,-126.76 565.57,-124.03 610,-108 615.63,-105.97 621.64,-103.8 627.42,-101.71"/>
</g>
<!-- Monoid&#45;&#45;Alternative -->
<g id="edge9" class="edge">
<title>Monoid&#45;&#45;Alternative</title>
<path fill="none" stroke="gray" stroke-dasharray="1,5" d="M488.87,-180.24C497.37,-187.23 507.97,-194.38 519,-198 582.35,-218.77 753.24,-208.96 819,-198 841.05,-194.32 864.68,-186.59 883.92,-179.23"/>
</g>
<!-- Monoid&#45;&#45;Monad_plus -->
<g id="edge10" class="edge">
<title>Monoid&#45;&#45;Monad_plus</title>
<path fill="none" stroke="gray" stroke-dasharray="1,5" d="M501.3,-147.39C522.71,-137.56 551.38,-123.36 575,-108 596.18,-94.23 597.3,-84.94 619,-72 645.2,-56.37 676.86,-43.29 702.26,-34.03"/>
</g>
<!-- Foldable -->
<g id="node13" class="node">
<title>Foldable</title>
<polygon fill="black" stroke="transparent" points="566,-108 498,-108 498,-72 566,-72 566,-108"/>
<text text-anchor="middle" x="532" y="-86.3" font-family="Helvetica,sans-Serif" font-size="14.00" fill="white">Foldable</text>
</g>
<!-- Monoid&#45;&#45;Foldable -->
<g id="edge13" class="edge">
<title>Monoid&#45;&#45;Foldable</title>
<path fill="none" stroke="gray" d="M485.33,-143.7C494.94,-132.85 507.27,-118.92 516.85,-108.1"/>
</g>
<!-- Category -->
<g id="node27" class="node">
<title>Category</title>
<polygon fill="black" stroke="transparent" points="321.5,-252 250.5,-252 250.5,-216 321.5,-216 321.5,-252"/>
<text text-anchor="middle" x="286" y="-230.3" font-family="Helvetica,sans-Serif" font-size="14.00" fill="white">Category</text>
</g>
<!-- Monoid&#45;&#45;Category -->
<g id="edge33" class="edge">
<title>Monoid&#45;&#45;Category</title>
<path fill="none" stroke="gray" stroke-dasharray="1,5" d="M438.77,-174.88C406.41,-187.19 355.9,-206.41 321.91,-219.34"/>
</g>
<!-- Arrow_plus -->
<g id="node34" class="node">
<title>Arrow_plus</title>
<polygon fill="black" stroke="transparent" points="302,-36 218,-36 218,0 302,0 302,-36"/>
<text text-anchor="middle" x="260" y="-14.3" font-family="Helvetica,sans-Serif" font-size="14.00" fill="white">Arrow_plus</text>
</g>
<!-- Monoid&#45;&#45;Arrow_plus -->
<g id="edge46" class="edge">
<title>Monoid&#45;&#45;Arrow_plus</title>
<path fill="none" stroke="gray" stroke-dasharray="1,5" d="M471.25,-143.89C471.72,-124 469.3,-91.44 451,-72 412.55,-31.16 345.63,-20.84 302.08,-18.73"/>
</g>
<!-- Free_selective&#45;&#45;Selective -->
<g id="edge17" class="edge">
<title>Free_selective&#45;&#45;Selective</title>
<path fill="none" stroke="gray" d="M444.82,-287.85C463.42,-277.49 487.58,-264.01 509,-252 553.49,-227.06 604.94,-198.04 636.73,-180.1"/>
</g>
<!-- Free_applicative&#45;&#45;Applicative -->
<g id="edge18" class="edge">
<title>Free_applicative&#45;&#45;Applicative</title>
<path fill="none" stroke="gray" d="M848.72,-287.7C850.42,-276.85 852.61,-262.92 854.31,-252.1"/>
</g>
<!-- Free_monad&#45;&#45;Monad -->
<g id="edge19" class="edge">
<title>Free_monad&#45;&#45;Monad</title>
<path fill="none" stroke="gray" d="M588.49,-143.7C602.6,-132.85 620.71,-118.92 634.76,-108.1"/>
</g>
<!-- Freer_monad -->
<g id="node17" class="node">
<title>Freer_monad</title>
<polygon fill="black" stroke="transparent" points="819,-180 721,-180 721,-144 819,-144 819,-180"/>
<text text-anchor="middle" x="770" y="-158.3" font-family="Helvetica,sans-Serif" font-size="14.00" fill="white">Freer_monad</text>
</g>
<!-- Freer_monad&#45;&#45;Monad -->
<g id="edge20" class="edge">
<title>Freer_monad&#45;&#45;Monad</title>
<path fill="none" stroke="gray" d="M742.36,-143.88C724.85,-133.03 702.28,-119.05 684.75,-108.19"/>
</g>
<!-- Strong -->
<g id="node29" class="node">
<title>Strong</title>
<polygon fill="black" stroke="transparent" points="155,-252 99,-252 99,-216 155,-216 155,-252"/>
<text text-anchor="middle" x="127" y="-230.3" font-family="Helvetica,sans-Serif" font-size="14.00" fill="white">Strong</text>
</g>
<!-- Profunctor&#45;&#45;Strong -->
<g id="edge35" class="edge">
<title>Profunctor&#45;&#45;Strong</title>
<path fill="none" stroke="gray" d="M189.48,-287.7C176.62,-276.85 160.1,-262.92 147.28,-252.1"/>
</g>
<!-- Choice -->
<g id="node30" class="node">
<title>Choice</title>
<polygon fill="black" stroke="transparent" points="232.5,-252 173.5,-252 173.5,-216 232.5,-216 232.5,-252"/>
<text text-anchor="middle" x="203" y="-230.3" font-family="Helvetica,sans-Serif" font-size="14.00" fill="white">Choice</text>
</g>
<!-- Profunctor&#45;&#45;Choice -->
<g id="edge36" class="edge">
<title>Profunctor&#45;&#45;Choice</title>
<path fill="none" stroke="gray" d="M208.27,-287.7C207.18,-276.85 205.79,-262.92 204.71,-252.1"/>
</g>
<!-- Closed -->
<g id="node31" class="node">
<title>Closed</title>
<polygon fill="black" stroke="transparent" points="398.5,-252 339.5,-252 339.5,-216 398.5,-216 398.5,-252"/>
<text text-anchor="middle" x="369" y="-230.3" font-family="Helvetica,sans-Serif" font-size="14.00" fill="white">Closed</text>
</g>
<!-- Profunctor&#45;&#45;Closed -->
<g id="edge37" class="edge">
<title>Profunctor&#45;&#45;Closed</title>
<path fill="none" stroke="gray" d="M249.27,-287.89C272.96,-277.55 303.74,-264.07 331,-252 333.64,-250.83 336.39,-249.61 339.14,-248.39"/>
</g>
<!-- Arrow -->
<g id="node28" class="node">
<title>Arrow</title>
<polygon fill="black" stroke="transparent" points="218,-180 164,-180 164,-144 218,-144 218,-180"/>
<text text-anchor="middle" x="191" y="-158.3" font-family="Helvetica,sans-Serif" font-size="14.00" fill="white">Arrow</text>
</g>
<!-- Category&#45;&#45;Arrow -->
<g id="edge34" class="edge">
<title>Category&#45;&#45;Arrow</title>
<path fill="none" stroke="gray" d="M262.52,-215.7C247.79,-204.85 228.89,-190.92 214.21,-180.1"/>
</g>
<!-- Arrow_zero -->
<g id="node32" class="node">
<title>Arrow_zero</title>
<polygon fill="black" stroke="transparent" points="86,-108 0,-108 0,-72 86,-72 86,-108"/>
<text text-anchor="middle" x="43" y="-86.3" font-family="Helvetica,sans-Serif" font-size="14.00" fill="white">Arrow_zero</text>
</g>
<!-- Arrow&#45;&#45;Arrow_zero -->
<g id="edge39" class="edge">
<title>Arrow&#45;&#45;Arrow_zero</title>
<path fill="none" stroke="gray" d="M163.85,-148.16C140.07,-136.91 105.32,-120.48 79.18,-108.11"/>
</g>
<!-- Arrow&#45;&#45;Arrow_alt -->
<g id="edge40" class="edge">
<title>Arrow&#45;&#45;Arrow_alt</title>
<path fill="none" stroke="gray" d="M218.19,-152.86C251.52,-142.79 309.67,-124.89 359,-108 361.9,-107.01 364.89,-105.96 367.9,-104.89"/>
</g>
<!-- Arrow&#45;&#45;Arrow_plus -->
<g id="edge41" class="edge">
<title>Arrow&#45;&#45;Arrow_plus</title>
<path fill="none" stroke="gray" d="M163.96,-144.01C152.11,-134.93 139.44,-122.6 133,-108 126.55,-93.36 124.13,-85.32 133,-72 151.74,-43.87 188.57,-30.64 217.76,-24.44"/>
</g>
<!-- Arrow_choice -->
<g id="node35" class="node">
<title>Arrow_choice</title>
<polygon fill="black" stroke="transparent" points="240,-108 142,-108 142,-72 240,-72 240,-108"/>
<text text-anchor="middle" x="191" y="-86.3" font-family="Helvetica,sans-Serif" font-size="14.00" fill="white">Arrow_choice</text>
</g>
<!-- Arrow&#45;&#45;Arrow_choice -->
<g id="edge42" class="edge">
<title>Arrow&#45;&#45;Arrow_choice</title>
<path fill="none" stroke="gray" d="M191,-143.7C191,-132.85 191,-118.92 191,-108.1"/>
</g>
<!-- Arrow_apply -->
<g id="node36" class="node">
<title>Arrow_apply</title>
<polygon fill="black" stroke="transparent" points="350,-108 258,-108 258,-72 350,-72 350,-108"/>
<text text-anchor="middle" x="304" y="-86.3" font-family="Helvetica,sans-Serif" font-size="14.00" fill="white">Arrow_apply</text>
</g>
<!-- Arrow&#45;&#45;Arrow_apply -->
<g id="edge43" class="edge">
<title>Arrow&#45;&#45;Arrow_apply</title>
<path fill="none" stroke="gray" d="M218.07,-144.23C235.7,-133.31 258.63,-119.11 276.37,-108.12"/>
</g>
<!-- Strong&#45;&#45;Arrow -->
<g id="edge38" class="edge">
<title>Strong&#45;&#45;Arrow</title>
<path fill="none" stroke="gray" d="M142.82,-215.7C152.74,-204.85 165.48,-190.92 175.36,-180.1"/>
</g>
<!-- Arrow_zero&#45;&#45;Arrow_plus -->
<g id="edge44" class="edge">
<title>Arrow_zero&#45;&#45;Arrow_plus</title>
<path fill="none" stroke="gray" stroke-dasharray="1,5" d="M86.13,-75.09C124.32,-62.77 179.75,-44.89 217.69,-32.65"/>
</g>
<!-- Arrow_alt&#45;&#45;Arrow_plus -->
<g id="edge45" class="edge">
<title>Arrow_alt&#45;&#45;Arrow_plus</title>
<path fill="none" stroke="gray" stroke-dasharray="1,5" d="M369.53,-71.88C346.98,-60.99 317.89,-46.95 295.36,-36.07"/>
</g>
</g>
</svg>
