<?xml version="1.0" encoding="UTF-8" standalone="no"?>
<!DOCTYPE svg PUBLIC "-//W3C//DTD SVG 1.1//EN"
 "http://www.w3.org/Graphics/SVG/1.1/DTD/svg11.dtd">
<!-- Generated by graphviz version 2.47.0 (0)
 -->
<!-- Pages: 1 -->
<svg width="1079pt" height="404pt"
 viewBox="0.00 0.00 1079.00 404.00" xmlns="http://www.w3.org/2000/svg" xmlns:xlink="http://www.w3.org/1999/xlink">
<g id="graph0" class="graph" transform="scale(1 1) rotate(0) translate(4 400)">
<polygon fill="white" stroke="transparent" points="-4,4 -4,-400 1075,-400 1075,4 -4,4"/>
<!-- Contravariant -->
<g id="node1" class="node">
<title>Contravariant</title>
<polygon fill="black" stroke="transparent" points="393,-396 295,-396 295,-360 393,-360 393,-396"/>
<text text-anchor="middle" x="344" y="-374.3" font-family="Helvetica,sans-Serif" font-size="14.00" fill="white">Contravariant</text>
</g>
<!-- Profunctor -->
<g id="node17" class="node">
<title>Profunctor</title>
<polygon fill="black" stroke="transparent" points="383.5,-324 304.5,-324 304.5,-288 383.5,-288 383.5,-324"/>
<text text-anchor="middle" x="344" y="-302.3" font-family="Helvetica,sans-Serif" font-size="14.00" fill="white">Profunctor</text>
</g>
<!-- Contravariant&#45;&#45;Profunctor -->
<g id="edge21" class="edge">
<title>Contravariant&#45;&#45;Profunctor</title>
<path fill="none" stroke="gray" d="M344,-359.7C344,-348.85 344,-334.92 344,-324.1"/>
</g>
<!-- Functor -->
<g id="node2" class="node">
<title>Functor</title>
<polygon fill="black" stroke="transparent" points="807,-396 745,-396 745,-360 807,-360 807,-396"/>
<text text-anchor="middle" x="776" y="-374.3" font-family="Helvetica,sans-Serif" font-size="14.00" fill="white">Functor</text>
</g>
<!-- Applicative -->
<g id="node3" class="node">
<title>Applicative</title>
<polygon fill="black" stroke="transparent" points="690,-252 608,-252 608,-216 690,-216 690,-252"/>
<text text-anchor="middle" x="649" y="-230.3" font-family="Helvetica,sans-Serif" font-size="14.00" fill="white">Applicative</text>
</g>
<!-- Functor&#45;&#45;Applicative -->
<g id="edge1" class="edge">
<title>Functor&#45;&#45;Applicative</title>
<path fill="none" stroke="gray" d="M744.95,-372.75C716.18,-367.03 674.79,-353.84 654,-324 639.23,-302.8 641.6,-271.38 645.04,-252.1"/>
</g>
<!-- Alt -->
<g id="node8" class="node">
<title>Alt</title>
<polygon fill="black" stroke="transparent" points="977,-324 923,-324 923,-288 977,-288 977,-324"/>
<text text-anchor="middle" x="950" y="-302.3" font-family="Helvetica,sans-Serif" font-size="14.00" fill="white">Alt</text>
</g>
<!-- Functor&#45;&#45;Alt -->
<g id="edge6" class="edge">
<title>Functor&#45;&#45;Alt</title>
<path fill="none" stroke="gray" d="M807.22,-364.7C834.21,-354.03 874.23,-338.14 909,-324 913.43,-322.2 918.11,-320.28 922.67,-318.39"/>
</g>
<!-- Comonad -->
<g id="node9" class="node">
<title>Comonad</title>
<polygon fill="black" stroke="transparent" points="1071,-324 995,-324 995,-288 1071,-288 1071,-324"/>
<text text-anchor="middle" x="1033" y="-302.3" font-family="Helvetica,sans-Serif" font-size="14.00" fill="white">Comonad</text>
</g>
<!-- Functor&#45;&#45;Comonad -->
<g id="edge7" class="edge">
<title>Functor&#45;&#45;Comonad</title>
<path fill="none" stroke="gray" d="M807.22,-370.15C848.48,-360.86 923.26,-343.21 986,-324 988.9,-323.11 991.89,-322.15 994.89,-321.15"/>
</g>
<!-- Free_selective -->
<g id="node13" class="node">
<title>Free_selective</title>
<polygon fill="black" stroke="transparent" points="607,-324 503,-324 503,-288 607,-288 607,-324"/>
<text text-anchor="middle" x="555" y="-302.3" font-family="Helvetica,sans-Serif" font-size="14.00" fill="white">Free_selective</text>
</g>
<!-- Functor&#45;&#45;Free_selective -->
<g id="edge14" class="edge">
<title>Functor&#45;&#45;Free_selective</title>
<path fill="none" stroke="gray" stroke-dasharray="1,5" d="M744.8,-367.12C709.11,-355.81 650.08,-337.12 607.32,-323.57"/>
</g>
<!-- Free_applicative -->
<g id="node14" class="node">
<title>Free_applicative</title>
<polygon fill="black" stroke="transparent" points="779,-324 663,-324 663,-288 779,-288 779,-324"/>
<text text-anchor="middle" x="721" y="-302.3" font-family="Helvetica,sans-Serif" font-size="14.00" fill="white">Free_applicative</text>
</g>
<!-- Functor&#45;&#45;Free_applicative -->
<g id="edge15" class="edge">
<title>Functor&#45;&#45;Free_applicative</title>
<path fill="none" stroke="gray" stroke-dasharray="1,5" d="M762.4,-359.7C753.88,-348.85 742.93,-334.92 734.44,-324.1"/>
</g>
<!-- Free_monad -->
<g id="node15" class="node">
<title>Free_monad</title>
<polygon fill="black" stroke="transparent" points="955,-180 861,-180 861,-144 955,-144 955,-180"/>
<text text-anchor="middle" x="908" y="-158.3" font-family="Helvetica,sans-Serif" font-size="14.00" fill="white">Free_monad</text>
</g>
<!-- Functor&#45;&#45;Free_monad -->
<g id="edge16" class="edge">
<title>Functor&#45;&#45;Free_monad</title>
<path fill="none" stroke="gray" stroke-dasharray="1,5" d="M807.45,-368.31C829.99,-360.44 859.22,-346.54 876,-324 908.58,-280.22 910.33,-211.85 909.13,-180.17"/>
</g>
<!-- Functor&#45;&#45;Profunctor -->
<g id="edge22" class="edge">
<title>Functor&#45;&#45;Profunctor</title>
<path fill="none" stroke="gray" d="M744.93,-371.97C668.03,-359.5 468.88,-327.23 383.65,-313.42"/>
</g>
<!-- Bifunctor -->
<g id="node18" class="node">
<title>Bifunctor</title>
<polygon fill="black" stroke="transparent" points="867,-324 797,-324 797,-288 867,-288 867,-324"/>
<text text-anchor="middle" x="832" y="-302.3" font-family="Helvetica,sans-Serif" font-size="14.00" fill="white">Bifunctor</text>
</g>
<!-- Functor&#45;&#45;Bifunctor -->
<g id="edge23" class="edge">
<title>Functor&#45;&#45;Bifunctor</title>
<path fill="none" stroke="gray" d="M789.84,-359.7C798.52,-348.85 809.67,-334.92 818.32,-324.1"/>
</g>
<!-- Selective -->
<g id="node4" class="node">
<title>Selective</title>
<polygon fill="black" stroke="transparent" points="590.5,-180 519.5,-180 519.5,-144 590.5,-144 590.5,-180"/>
<text text-anchor="middle" x="555" y="-158.3" font-family="Helvetica,sans-Serif" font-size="14.00" fill="white">Selective</text>
</g>
<!-- Applicative&#45;&#45;Selective -->
<g id="edge2" class="edge">
<title>Applicative&#45;&#45;Selective</title>
<path fill="none" stroke="gray" d="M625.76,-215.7C611.19,-204.85 592.49,-190.92 577.97,-180.1"/>
</g>
<!-- Alternative -->
<g id="node6" class="node">
<title>Alternative</title>
<polygon fill="black" stroke="transparent" points="689,-180 609,-180 609,-144 689,-144 689,-180"/>
<text text-anchor="middle" x="649" y="-158.3" font-family="Helvetica,sans-Serif" font-size="14.00" fill="white">Alternative</text>
</g>
<!-- Applicative&#45;&#45;Alternative -->
<g id="edge4" class="edge">
<title>Applicative&#45;&#45;Alternative</title>
<path fill="none" stroke="gray" d="M649,-215.7C649,-204.85 649,-190.92 649,-180.1"/>
</g>
<!-- Traversable -->
<g id="node23" class="node">
<title>Traversable</title>
<polygon fill="black" stroke="transparent" points="877,-36 789,-36 789,0 877,0 877,-36"/>
<text text-anchor="middle" x="833" y="-14.3" font-family="Helvetica,sans-Serif" font-size="14.00" fill="white">Traversable</text>
</g>
<!-- Applicative&#45;&#45;Traversable -->
<g id="edge28" class="edge">
<title>Applicative&#45;&#45;Traversable</title>
<path fill="none" stroke="gray" d="M690.11,-231.75C728.37,-228.22 783.88,-216.59 814,-180 848.34,-138.28 841.86,-68.58 836.47,-36.33"/>
</g>
<!-- Monad -->
<g id="node5" class="node">
<title>Monad</title>
<polygon fill="black" stroke="transparent" points="682.5,-108 623.5,-108 623.5,-72 682.5,-72 682.5,-108"/>
<text text-anchor="middle" x="653" y="-86.3" font-family="Helvetica,sans-Serif" font-size="14.00" fill="white">Monad</text>
</g>
<!-- Selective&#45;&#45;Monad -->
<g id="edge3" class="edge">
<title>Selective&#45;&#45;Monad</title>
<path fill="none" stroke="gray" d="M578.97,-143.88C594.16,-133.03 613.73,-119.05 628.93,-108.19"/>
</g>
<!-- Monad_plus -->
<g id="node7" class="node">
<title>Monad_plus</title>
<polygon fill="black" stroke="transparent" points="698.5,-36 607.5,-36 607.5,0 698.5,0 698.5,-36"/>
<text text-anchor="middle" x="653" y="-14.3" font-family="Helvetica,sans-Serif" font-size="14.00" fill="white">Monad_plus</text>
</g>
<!-- Monad&#45;&#45;Monad_plus -->
<g id="edge5" class="edge">
<title>Monad&#45;&#45;Monad_plus</title>
<path fill="none" stroke="gray" d="M653,-71.7C653,-60.85 653,-46.92 653,-36.1"/>
</g>
<!-- State -->
<g id="node19" class="node">
<title>State</title>
<polygon fill="black" stroke="transparent" points="771,-36 717,-36 717,0 771,0 771,-36"/>
<text text-anchor="middle" x="744" y="-14.3" font-family="Helvetica,sans-Serif" font-size="14.00" fill="white">State</text>
</g>
<!-- Monad&#45;&#45;State -->
<g id="edge24" class="edge">
<title>Monad&#45;&#45;State</title>
<path fill="none" stroke="gray" d="M675.49,-71.7C689.6,-60.85 707.71,-46.92 721.76,-36.1"/>
</g>
<!-- Reader -->
<g id="node20" class="node">
<title>Reader</title>
<polygon fill="black" stroke="transparent" points="516.5,-36 455.5,-36 455.5,0 516.5,0 516.5,-36"/>
<text text-anchor="middle" x="486" y="-14.3" font-family="Helvetica,sans-Serif" font-size="14.00" fill="white">Reader</text>
</g>
<!-- Monad&#45;&#45;Reader -->
<g id="edge25" class="edge">
<title>Monad&#45;&#45;Reader</title>
<path fill="none" stroke="gray" d="M623.47,-76.74C597.71,-66.03 559.36,-50.05 526,-36 522.94,-34.71 519.75,-33.36 516.57,-32.01"/>
</g>
<!-- Writer -->
<g id="node21" class="node">
<title>Writer</title>
<polygon fill="black" stroke="transparent" points="589,-36 535,-36 535,0 589,0 589,-36"/>
<text text-anchor="middle" x="562" y="-14.3" font-family="Helvetica,sans-Serif" font-size="14.00" fill="white">Writer</text>
</g>
<!-- Monad&#45;&#45;Writer -->
<g id="edge26" class="edge">
<title>Monad&#45;&#45;Writer</title>
<path fill="none" stroke="gray" d="M630.51,-71.7C616.4,-60.85 598.29,-46.92 584.24,-36.1"/>
</g>
<!-- Monad&#45;&#45;Traversable -->
<g id="edge29" class="edge">
<title>Monad&#45;&#45;Traversable</title>
<path fill="none" stroke="gray" d="M682.72,-77.44C711.68,-66.18 756.05,-48.93 789.07,-36.08"/>
</g>
<!-- Store -->
<g id="node22" class="node">
<title>Store</title>
<polygon fill="black" stroke="transparent" points="1060,-252 1006,-252 1006,-216 1060,-216 1060,-252"/>
<text text-anchor="middle" x="1033" y="-230.3" font-family="Helvetica,sans-Serif" font-size="14.00" fill="white">Store</text>
</g>
<!-- Comonad&#45;&#45;Store -->
<g id="edge27" class="edge">
<title>Comonad&#45;&#45;Store</title>
<path fill="none" stroke="gray" d="M1033,-287.7C1033,-276.85 1033,-262.92 1033,-252.1"/>
</g>
<!-- Semigroup -->
<g id="node10" class="node">
<title>Semigroup</title>
<polygon fill="black" stroke="transparent" points="511.5,-252 428.5,-252 428.5,-216 511.5,-216 511.5,-252"/>
<text text-anchor="middle" x="470" y="-230.3" font-family="Helvetica,sans-Serif" font-size="14.00" fill="white">Semigroup</text>
</g>
<!-- Semigroup&#45;&#45;Alt -->
<g id="edge11" class="edge">
<title>Semigroup&#45;&#45;Alt</title>
<path fill="none" stroke="gray" stroke-dasharray="1,5" d="M511.54,-240.49C536.82,-243.83 569.77,-248.17 599,-252 722.1,-268.11 753.8,-266.08 876,-288 891.57,-290.79 908.8,-294.7 922.72,-298.07"/>
</g>
<!-- Monoid -->
<g id="node11" class="node">
<title>Monoid</title>
<polygon fill="black" stroke="transparent" points="501,-180 439,-180 439,-144 501,-144 501,-180"/>
<text text-anchor="middle" x="470" y="-158.3" font-family="Helvetica,sans-Serif" font-size="14.00" fill="white">Monoid</text>
</g>
<!-- Semigroup&#45;&#45;Monoid -->
<g id="edge8" class="edge">
<title>Semigroup&#45;&#45;Monoid</title>
<path fill="none" stroke="gray" d="M470,-215.7C470,-204.85 470,-190.92 470,-180.1"/>
</g>
<!-- Arrow_alt -->
<g id="node30" class="node">
<title>Arrow_alt</title>
<polygon fill="black" stroke="transparent" points="442,-108 368,-108 368,-72 442,-72 442,-108"/>
<text text-anchor="middle" x="405" y="-86.3" font-family="Helvetica,sans-Serif" font-size="14.00" fill="white">Arrow_alt</text>
</g>
<!-- Semigroup&#45;&#45;Arrow_alt -->
<g id="edge44" class="edge">
<title>Semigroup&#45;&#45;Arrow_alt</title>
<path fill="none" stroke="gray" stroke-dasharray="1,5" d="M454.52,-215.95C446.24,-206.06 436.45,-193.01 430,-180 418.31,-156.42 411.34,-126.52 407.84,-108.08"/>
</g>
<!-- Monoid&#45;&#45;Monad -->
<g id="edge12" class="edge">
<title>Monoid&#45;&#45;Monad</title>
<path fill="none" stroke="gray" stroke-dasharray="1,5" d="M501.29,-147.87C504.56,-146.55 507.84,-145.23 511,-144 554.22,-127.11 565.58,-124.36 609,-108 613.6,-106.27 618.46,-104.41 623.2,-102.59"/>
</g>
<!-- Monoid&#45;&#45;Alternative -->
<g id="edge9" class="edge">
<title>Monoid&#45;&#45;Alternative</title>
<path fill="none" stroke="gray" stroke-dasharray="1,5" d="M489.31,-180.25C498,-187.23 508.8,-194.39 520,-198 550.03,-207.69 560.65,-206.65 591,-198 603.65,-194.39 616.24,-187.15 626.43,-180.09"/>
</g>
<!-- Monoid&#45;&#45;Monad_plus -->
<g id="edge10" class="edge">
<title>Monoid&#45;&#45;Monad_plus</title>
<path fill="none" stroke="gray" stroke-dasharray="1,5" d="M501.06,-146.93C527.33,-134.74 562.61,-117.6 575,-108 602.12,-86.98 627.05,-55.51 641.11,-36.17"/>
</g>
<!-- Foldable -->
<g id="node12" class="node">
<title>Foldable</title>
<polygon fill="black" stroke="transparent" points="566,-108 498,-108 498,-72 566,-72 566,-108"/>
<text text-anchor="middle" x="532" y="-86.3" font-family="Helvetica,sans-Serif" font-size="14.00" fill="white">Foldable</text>
</g>
<!-- Monoid&#45;&#45;Foldable -->
<g id="edge13" class="edge">
<title>Monoid&#45;&#45;Foldable</title>
<path fill="none" stroke="gray" d="M485.33,-143.7C494.94,-132.85 507.27,-118.92 516.85,-108.1"/>
</g>
<!-- Category -->
<g id="node24" class="node">
<title>Category</title>
<polygon fill="black" stroke="transparent" points="181.5,-252 110.5,-252 110.5,-216 181.5,-216 181.5,-252"/>
<text text-anchor="middle" x="146" y="-230.3" font-family="Helvetica,sans-Serif" font-size="14.00" fill="white">Category</text>
</g>
<!-- Monoid&#45;&#45;Category -->
<g id="edge30" class="edge">
<title>Monoid&#45;&#45;Category</title>
<path fill="none" stroke="gray" stroke-dasharray="1,5" d="M438.63,-167.15C386.56,-174.43 279.27,-191.14 191,-216 187.95,-216.86 184.81,-217.84 181.67,-218.88"/>
</g>
<!-- Arrow_plus -->
<g id="node31" class="node">
<title>Arrow_plus</title>
<polygon fill="black" stroke="transparent" points="410,-36 326,-36 326,0 410,0 410,-36"/>
<text text-anchor="middle" x="368" y="-14.3" font-family="Helvetica,sans-Serif" font-size="14.00" fill="white">Arrow_plus</text>
</g>
<!-- Monoid&#45;&#45;Arrow_plus -->
<g id="edge43" class="edge">
<title>Monoid&#45;&#45;Arrow_plus</title>
<path fill="none" stroke="gray" stroke-dasharray="1,5" d="M470.15,-143.73C469.5,-124.57 465.95,-93.55 451,-72 440.38,-56.69 423.76,-44.81 408.17,-36.21"/>
</g>
<!-- Free_selective&#45;&#45;Selective -->
<g id="edge17" class="edge">
<title>Free_selective&#45;&#45;Selective</title>
<path fill="none" stroke="gray" d="M555,-287.87C555,-260.58 555,-207.52 555,-180.19"/>
</g>
<!-- Free_applicative&#45;&#45;Applicative -->
<g id="edge18" class="edge">
<title>Free_applicative&#45;&#45;Applicative</title>
<path fill="none" stroke="gray" d="M703.2,-287.7C692.04,-276.85 677.71,-262.92 666.59,-252.1"/>
</g>
<!-- Free_monad&#45;&#45;Monad -->
<g id="edge19" class="edge">
<title>Free_monad&#45;&#45;Monad</title>
<path fill="none" stroke="gray" d="M860.93,-148.08C808.84,-133.78 726.46,-111.17 682.67,-99.14"/>
</g>
<!-- Freer_monad -->
<g id="node16" class="node">
<title>Freer_monad</title>
<polygon fill="black" stroke="transparent" points="805,-180 707,-180 707,-144 805,-144 805,-180"/>
<text text-anchor="middle" x="756" y="-158.3" font-family="Helvetica,sans-Serif" font-size="14.00" fill="white">Freer_monad</text>
</g>
<!-- Freer_monad&#45;&#45;Monad -->
<g id="edge20" class="edge">
<title>Freer_monad&#45;&#45;Monad</title>
<path fill="none" stroke="gray" d="M730.8,-143.88C714.84,-133.03 694.27,-119.05 678.29,-108.19"/>
</g>
<!-- Strong -->
<g id="node26" class="node">
<title>Strong</title>
<polygon fill="black" stroke="transparent" points="410,-252 354,-252 354,-216 410,-216 410,-252"/>
<text text-anchor="middle" x="382" y="-230.3" font-family="Helvetica,sans-Serif" font-size="14.00" fill="white">Strong</text>
</g>
<!-- Profunctor&#45;&#45;Strong -->
<g id="edge32" class="edge">
<title>Profunctor&#45;&#45;Strong</title>
<path fill="none" stroke="gray" d="M353.39,-287.7C359.28,-276.85 366.85,-262.92 372.71,-252.1"/>
</g>
<!-- Choice -->
<g id="node27" class="node">
<title>Choice</title>
<polygon fill="black" stroke="transparent" points="258.5,-252 199.5,-252 199.5,-216 258.5,-216 258.5,-252"/>
<text text-anchor="middle" x="229" y="-230.3" font-family="Helvetica,sans-Serif" font-size="14.00" fill="white">Choice</text>
</g>
<!-- Profunctor&#45;&#45;Choice -->
<g id="edge33" class="edge">
<title>Profunctor&#45;&#45;Choice</title>
<path fill="none" stroke="gray" d="M315.87,-287.88C298.05,-277.03 275.08,-263.05 257.24,-252.19"/>
</g>
<!-- Closed -->
<g id="node28" class="node">
<title>Closed</title>
<polygon fill="black" stroke="transparent" points="335.5,-252 276.5,-252 276.5,-216 335.5,-216 335.5,-252"/>
<text text-anchor="middle" x="306" y="-230.3" font-family="Helvetica,sans-Serif" font-size="14.00" fill="white">Closed</text>
</g>
<!-- Profunctor&#45;&#45;Closed -->
<g id="edge34" class="edge">
<title>Profunctor&#45;&#45;Closed</title>
<path fill="none" stroke="gray" d="M334.61,-287.7C328.72,-276.85 321.15,-262.92 315.29,-252.1"/>
</g>
<!-- Arrow -->
<g id="node25" class="node">
<title>Arrow</title>
<polygon fill="black" stroke="transparent" points="296,-180 242,-180 242,-144 296,-144 296,-180"/>
<text text-anchor="middle" x="269" y="-158.3" font-family="Helvetica,sans-Serif" font-size="14.00" fill="white">Arrow</text>
</g>
<!-- Category&#45;&#45;Arrow -->
<g id="edge31" class="edge">
<title>Category&#45;&#45;Arrow</title>
<path fill="none" stroke="gray" d="M176.09,-215.88C196.15,-204.46 222.29,-189.58 241.74,-178.51"/>
</g>
<!-- Arrow_zero -->
<g id="node29" class="node">
<title>Arrow_zero</title>
<polygon fill="black" stroke="transparent" points="312,-108 226,-108 226,-72 312,-72 312,-108"/>
<text text-anchor="middle" x="269" y="-86.3" font-family="Helvetica,sans-Serif" font-size="14.00" fill="white">Arrow_zero</text>
</g>
<!-- Arrow&#45;&#45;Arrow_zero -->
<g id="edge36" class="edge">
<title>Arrow&#45;&#45;Arrow_zero</title>
<path fill="none" stroke="gray" d="M269,-143.7C269,-132.85 269,-118.92 269,-108.1"/>
</g>
<!-- Arrow&#45;&#45;Arrow_alt -->
<g id="edge37" class="edge">
<title>Arrow&#45;&#45;Arrow_alt</title>
<path fill="none" stroke="gray" d="M296.19,-147C317.9,-135.83 348.41,-120.13 371.59,-108.19"/>
</g>
<!-- Arrow&#45;&#45;Arrow_plus -->
<g id="edge38" class="edge">
<title>Arrow&#45;&#45;Arrow_plus</title>
<path fill="none" stroke="gray" d="M288.45,-143.79C298.88,-133.95 311.5,-121.01 321,-108 337.9,-84.86 352.44,-54.84 360.7,-36.26"/>
</g>
<!-- Arrow_choice -->
<g id="node32" class="node">
<title>Arrow_choice</title>
<polygon fill="black" stroke="transparent" points="98,-108 0,-108 0,-72 98,-72 98,-108"/>
<text text-anchor="middle" x="49" y="-86.3" font-family="Helvetica,sans-Serif" font-size="14.00" fill="white">Arrow_choice</text>
</g>
<!-- Arrow&#45;&#45;Arrow_choice -->
<g id="edge39" class="edge">
<title>Arrow&#45;&#45;Arrow_choice</title>
<path fill="none" stroke="gray" d="M241.58,-152.28C205.76,-140.88 142.4,-120.72 98.17,-106.65"/>
</g>
<!-- Arrow_apply -->
<g id="node33" class="node">
<title>Arrow_apply</title>
<polygon fill="black" stroke="transparent" points="208,-108 116,-108 116,-72 208,-72 208,-108"/>
<text text-anchor="middle" x="162" y="-86.3" font-family="Helvetica,sans-Serif" font-size="14.00" fill="white">Arrow_apply</text>
</g>
<!-- Arrow&#45;&#45;Arrow_apply -->
<g id="edge40" class="edge">
<title>Arrow&#45;&#45;Arrow_apply</title>
<path fill="none" stroke="gray" d="M242.82,-143.88C226.24,-133.03 204.88,-119.05 188.28,-108.19"/>
</g>
<!-- Strong&#45;&#45;Arrow -->
<g id="edge35" class="edge">
<title>Strong&#45;&#45;Arrow</title>
<path fill="none" stroke="gray" d="M354.36,-215.88C336.72,-204.95 313.94,-190.84 296.36,-179.95"/>
</g>
<!-- Arrow_zero&#45;&#45;Arrow_plus -->
<g id="edge41" class="edge">
<title>Arrow_zero&#45;&#45;Arrow_plus</title>
<path fill="none" stroke="gray" stroke-dasharray="1,5" d="M293.22,-71.88C308.56,-61.03 328.33,-47.05 343.69,-36.19"/>
</g>
<!-- Arrow_alt&#45;&#45;Arrow_plus -->
<g id="edge42" class="edge">
<title>Arrow_alt&#45;&#45;Arrow_plus</title>
<path fill="none" stroke="gray" stroke-dasharray="1,5" d="M395.85,-71.7C390.12,-60.85 382.76,-46.92 377.04,-36.1"/>
</g>
</g>
</svg>
