<?xml version="1.0" encoding="UTF-8" standalone="no"?>
<!DOCTYPE svg PUBLIC "-//W3C//DTD SVG 1.1//EN"
 "http://www.w3.org/Graphics/SVG/1.1/DTD/svg11.dtd">
<!-- Generated by graphviz version 2.47.0 (0)
 -->
<!-- Pages: 1 -->
<svg width="1001pt" height="404pt"
 viewBox="0.00 0.00 1001.00 404.00" xmlns="http://www.w3.org/2000/svg" xmlns:xlink="http://www.w3.org/1999/xlink">
<g id="graph0" class="graph" transform="scale(1 1) rotate(0) translate(4 400)">
<polygon fill="white" stroke="transparent" points="-4,4 -4,-400 997,-400 997,4 -4,4"/>
<!-- Contravariant -->
<g id="node1" class="node">
<title>Contravariant</title>
<polygon fill="black" stroke="transparent" points="229,-396 131,-396 131,-360 229,-360 229,-396"/>
<text text-anchor="middle" x="180" y="-374.3" font-family="Helvetica,sans-Serif" font-size="14.00" fill="white">Contravariant</text>
</g>
<!-- Profunctor -->
<g id="node17" class="node">
<title>Profunctor</title>
<polygon fill="black" stroke="transparent" points="219.5,-324 140.5,-324 140.5,-288 219.5,-288 219.5,-324"/>
<text text-anchor="middle" x="180" y="-302.3" font-family="Helvetica,sans-Serif" font-size="14.00" fill="white">Profunctor</text>
</g>
<!-- Contravariant&#45;&#45;Profunctor -->
<g id="edge21" class="edge">
<title>Contravariant&#45;&#45;Profunctor</title>
<path fill="none" stroke="gray" d="M180,-359.7C180,-348.85 180,-334.92 180,-324.1"/>
</g>
<!-- Functor -->
<g id="node2" class="node">
<title>Functor</title>
<polygon fill="black" stroke="transparent" points="683,-396 621,-396 621,-360 683,-360 683,-396"/>
<text text-anchor="middle" x="652" y="-374.3" font-family="Helvetica,sans-Serif" font-size="14.00" fill="white">Functor</text>
</g>
<!-- Applicative -->
<g id="node3" class="node">
<title>Applicative</title>
<polygon fill="black" stroke="transparent" points="626,-252 544,-252 544,-216 626,-216 626,-252"/>
<text text-anchor="middle" x="585" y="-230.3" font-family="Helvetica,sans-Serif" font-size="14.00" fill="white">Applicative</text>
</g>
<!-- Functor&#45;&#45;Applicative -->
<g id="edge1" class="edge">
<title>Functor&#45;&#45;Applicative</title>
<path fill="none" stroke="gray" d="M645.2,-359.72C637.95,-341.62 625.89,-312.48 614,-288 608.13,-275.92 600.88,-262.67 595.1,-252.44"/>
</g>
<!-- Alt -->
<g id="node8" class="node">
<title>Alt</title>
<polygon fill="black" stroke="transparent" points="879,-324 825,-324 825,-288 879,-288 879,-324"/>
<text text-anchor="middle" x="852" y="-302.3" font-family="Helvetica,sans-Serif" font-size="14.00" fill="white">Alt</text>
</g>
<!-- Functor&#45;&#45;Alt -->
<g id="edge6" class="edge">
<title>Functor&#45;&#45;Alt</title>
<path fill="none" stroke="gray" d="M683.01,-367.39C715.22,-357.23 766.98,-340.44 811,-324 815.48,-322.33 820.19,-320.47 824.76,-318.61"/>
</g>
<!-- Comonad -->
<g id="node9" class="node">
<title>Comonad</title>
<polygon fill="black" stroke="transparent" points="471,-324 395,-324 395,-288 471,-288 471,-324"/>
<text text-anchor="middle" x="433" y="-302.3" font-family="Helvetica,sans-Serif" font-size="14.00" fill="white">Comonad</text>
</g>
<!-- Functor&#45;&#45;Comonad -->
<g id="edge7" class="edge">
<title>Functor&#45;&#45;Comonad</title>
<path fill="none" stroke="gray" d="M620.78,-367.87C586.21,-357.65 528.89,-340.36 480,-324 477.12,-323.04 474.15,-322.02 471.17,-320.98"/>
</g>
<!-- Free_selective -->
<g id="node13" class="node">
<title>Free_selective</title>
<polygon fill="black" stroke="transparent" points="748,-252 644,-252 644,-216 748,-216 748,-252"/>
<text text-anchor="middle" x="696" y="-230.3" font-family="Helvetica,sans-Serif" font-size="14.00" fill="white">Free_selective</text>
</g>
<!-- Functor&#45;&#45;Free_selective -->
<g id="edge14" class="edge">
<title>Functor&#45;&#45;Free_selective</title>
<path fill="none" stroke="gray" stroke-dasharray="1,5" d="M657.31,-359.87C665.76,-332.58 682.2,-279.52 690.67,-252.19"/>
</g>
<!-- Free_applicative -->
<g id="node14" class="node">
<title>Free_applicative</title>
<polygon fill="black" stroke="transparent" points="605,-324 489,-324 489,-288 605,-288 605,-324"/>
<text text-anchor="middle" x="547" y="-302.3" font-family="Helvetica,sans-Serif" font-size="14.00" fill="white">Free_applicative</text>
</g>
<!-- Functor&#45;&#45;Free_applicative -->
<g id="edge15" class="edge">
<title>Functor&#45;&#45;Free_applicative</title>
<path fill="none" stroke="gray" stroke-dasharray="1,5" d="M626.31,-359.88C610.04,-349.03 589.07,-335.05 572.78,-324.19"/>
</g>
<!-- Free_monad -->
<g id="node15" class="node">
<title>Free_monad</title>
<polygon fill="black" stroke="transparent" points="844,-180 750,-180 750,-144 844,-144 844,-180"/>
<text text-anchor="middle" x="797" y="-158.3" font-family="Helvetica,sans-Serif" font-size="14.00" fill="white">Free_monad</text>
</g>
<!-- Functor&#45;&#45;Free_monad -->
<g id="edge16" class="edge">
<title>Functor&#45;&#45;Free_monad</title>
<path fill="none" stroke="gray" stroke-dasharray="1,5" d="M683.07,-372.87C712.47,-367.21 755.38,-354.06 778,-324 810.49,-280.82 804.93,-211.85 800.12,-180.06"/>
</g>
<!-- Functor&#45;&#45;Profunctor -->
<g id="edge22" class="edge">
<title>Functor&#45;&#45;Profunctor</title>
<path fill="none" stroke="gray" d="M620.67,-372.35C537.59,-360.03 311.77,-326.54 219.79,-312.9"/>
</g>
<!-- Bifunctor -->
<g id="node18" class="node">
<title>Bifunctor</title>
<polygon fill="black" stroke="transparent" points="769,-324 699,-324 699,-288 769,-288 769,-324"/>
<text text-anchor="middle" x="734" y="-302.3" font-family="Helvetica,sans-Serif" font-size="14.00" fill="white">Bifunctor</text>
</g>
<!-- Functor&#45;&#45;Bifunctor -->
<g id="edge23" class="edge">
<title>Functor&#45;&#45;Bifunctor</title>
<path fill="none" stroke="gray" d="M672.27,-359.7C684.98,-348.85 701.3,-334.92 713.96,-324.1"/>
</g>
<!-- Selective -->
<g id="node4" class="node">
<title>Selective</title>
<polygon fill="black" stroke="transparent" points="731.5,-180 660.5,-180 660.5,-144 731.5,-144 731.5,-180"/>
<text text-anchor="middle" x="696" y="-158.3" font-family="Helvetica,sans-Serif" font-size="14.00" fill="white">Selective</text>
</g>
<!-- Applicative&#45;&#45;Selective -->
<g id="edge2" class="edge">
<title>Applicative&#45;&#45;Selective</title>
<path fill="none" stroke="gray" d="M612.15,-215.88C629.35,-205.03 651.52,-191.05 668.74,-180.19"/>
</g>
<!-- Alternative -->
<g id="node6" class="node">
<title>Alternative</title>
<polygon fill="black" stroke="transparent" points="604,-180 524,-180 524,-144 604,-144 604,-180"/>
<text text-anchor="middle" x="564" y="-158.3" font-family="Helvetica,sans-Serif" font-size="14.00" fill="white">Alternative</text>
</g>
<!-- Applicative&#45;&#45;Alternative -->
<g id="edge4" class="edge">
<title>Applicative&#45;&#45;Alternative</title>
<path fill="none" stroke="gray" d="M579.81,-215.7C576.55,-204.85 572.38,-190.92 569.13,-180.1"/>
</g>
<!-- Traversable -->
<g id="node22" class="node">
<title>Traversable</title>
<polygon fill="black" stroke="transparent" points="659,-36 571,-36 571,0 659,0 659,-36"/>
<text text-anchor="middle" x="615" y="-14.3" font-family="Helvetica,sans-Serif" font-size="14.00" fill="white">Traversable</text>
</g>
<!-- Applicative&#45;&#45;Traversable -->
<g id="edge27" class="edge">
<title>Applicative&#45;&#45;Traversable</title>
<path fill="none" stroke="gray" d="M596.83,-215.71C602.93,-205.74 609.77,-192.71 613,-180 625.96,-129.07 620.96,-66.12 617.4,-36.26"/>
</g>
<!-- Monad -->
<g id="node5" class="node">
<title>Monad</title>
<polygon fill="black" stroke="transparent" points="826.5,-108 767.5,-108 767.5,-72 826.5,-72 826.5,-108"/>
<text text-anchor="middle" x="797" y="-86.3" font-family="Helvetica,sans-Serif" font-size="14.00" fill="white">Monad</text>
</g>
<!-- Selective&#45;&#45;Monad -->
<g id="edge3" class="edge">
<title>Selective&#45;&#45;Monad</title>
<path fill="none" stroke="gray" d="M720.71,-143.88C736.36,-133.03 756.53,-119.05 772.2,-108.19"/>
</g>
<!-- Monad_plus -->
<g id="node7" class="node">
<title>Monad_plus</title>
<polygon fill="black" stroke="transparent" points="768.5,-36 677.5,-36 677.5,0 768.5,0 768.5,-36"/>
<text text-anchor="middle" x="723" y="-14.3" font-family="Helvetica,sans-Serif" font-size="14.00" fill="white">Monad_plus</text>
</g>
<!-- Monad&#45;&#45;Monad_plus -->
<g id="edge5" class="edge">
<title>Monad&#45;&#45;Monad_plus</title>
<path fill="none" stroke="gray" d="M778.71,-71.7C767.24,-60.85 752.51,-46.92 741.08,-36.1"/>
</g>
<!-- State -->
<g id="node19" class="node">
<title>State</title>
<polygon fill="black" stroke="transparent" points="841,-36 787,-36 787,0 841,0 841,-36"/>
<text text-anchor="middle" x="814" y="-14.3" font-family="Helvetica,sans-Serif" font-size="14.00" fill="white">State</text>
</g>
<!-- Monad&#45;&#45;State -->
<g id="edge24" class="edge">
<title>Monad&#45;&#45;State</title>
<path fill="none" stroke="gray" d="M801.2,-71.7C803.84,-60.85 807.22,-46.92 809.85,-36.1"/>
</g>
<!-- Reader -->
<g id="node20" class="node">
<title>Reader</title>
<polygon fill="black" stroke="transparent" points="920.5,-36 859.5,-36 859.5,0 920.5,0 920.5,-36"/>
<text text-anchor="middle" x="890" y="-14.3" font-family="Helvetica,sans-Serif" font-size="14.00" fill="white">Reader</text>
</g>
<!-- Monad&#45;&#45;Reader -->
<g id="edge25" class="edge">
<title>Monad&#45;&#45;Reader</title>
<path fill="none" stroke="gray" d="M819.99,-71.7C834.4,-60.85 852.91,-46.92 867.28,-36.1"/>
</g>
<!-- Writer -->
<g id="node21" class="node">
<title>Writer</title>
<polygon fill="black" stroke="transparent" points="993,-36 939,-36 939,0 993,0 993,-36"/>
<text text-anchor="middle" x="966" y="-14.3" font-family="Helvetica,sans-Serif" font-size="14.00" fill="white">Writer</text>
</g>
<!-- Monad&#45;&#45;Writer -->
<g id="edge26" class="edge">
<title>Monad&#45;&#45;Writer</title>
<path fill="none" stroke="gray" d="M826.54,-77.83C853.63,-67.45 894.78,-51.31 930,-36 932.92,-34.73 935.95,-33.37 938.96,-31.99"/>
</g>
<!-- Monad&#45;&#45;Traversable -->
<g id="edge28" class="edge">
<title>Monad&#45;&#45;Traversable</title>
<path fill="none" stroke="gray" d="M767.35,-77.6C738.04,-66.32 692.83,-48.94 659.27,-36.03"/>
</g>
<!-- Semigroup -->
<g id="node10" class="node">
<title>Semigroup</title>
<polygon fill="black" stroke="transparent" points="488.5,-252 405.5,-252 405.5,-216 488.5,-216 488.5,-252"/>
<text text-anchor="middle" x="447" y="-230.3" font-family="Helvetica,sans-Serif" font-size="14.00" fill="white">Semigroup</text>
</g>
<!-- Semigroup&#45;&#45;Alt -->
<g id="edge11" class="edge">
<title>Semigroup&#45;&#45;Alt</title>
<path fill="none" stroke="gray" stroke-dasharray="1,5" d="M488.56,-243.42C503.21,-246.28 519.81,-249.41 535,-252 642.62,-270.36 670.71,-267.76 778,-288 793.54,-290.93 810.78,-294.85 824.7,-298.19"/>
</g>
<!-- Monoid -->
<g id="node11" class="node">
<title>Monoid</title>
<polygon fill="black" stroke="transparent" points="504,-180 442,-180 442,-144 504,-144 504,-180"/>
<text text-anchor="middle" x="473" y="-158.3" font-family="Helvetica,sans-Serif" font-size="14.00" fill="white">Monoid</text>
</g>
<!-- Semigroup&#45;&#45;Monoid -->
<g id="edge8" class="edge">
<title>Semigroup&#45;&#45;Monoid</title>
<path fill="none" stroke="gray" d="M453.43,-215.7C457.46,-204.85 462.63,-190.92 466.65,-180.1"/>
</g>
<!-- Arrow_alt -->
<g id="node29" class="node">
<title>Arrow_alt</title>
<polygon fill="black" stroke="transparent" points="442,-108 368,-108 368,-72 442,-72 442,-108"/>
<text text-anchor="middle" x="405" y="-86.3" font-family="Helvetica,sans-Serif" font-size="14.00" fill="white">Arrow_alt</text>
</g>
<!-- Semigroup&#45;&#45;Arrow_alt -->
<g id="edge43" class="edge">
<title>Semigroup&#45;&#45;Arrow_alt</title>
<path fill="none" stroke="gray" stroke-dasharray="1,5" d="M441.93,-215.87C433.86,-188.58 418.17,-135.52 410.08,-108.19"/>
</g>
<!-- Monoid&#45;&#45;Monad -->
<g id="edge12" class="edge">
<title>Monoid&#45;&#45;Monad</title>
<path fill="none" stroke="gray" stroke-dasharray="1,5" d="M504.41,-147.5C507.95,-146.22 511.53,-145.02 515,-144 605.11,-117.58 715.41,-101.33 767.32,-94.6"/>
</g>
<!-- Monoid&#45;&#45;Alternative -->
<g id="edge9" class="edge">
<title>Monoid&#45;&#45;Alternative</title>
<path fill="none" stroke="gray" stroke-dasharray="1,5" d="M504.28,-162C510.81,-162 517.34,-162 523.88,-162"/>
</g>
<!-- Monoid&#45;&#45;Monad_plus -->
<g id="edge10" class="edge">
<title>Monoid&#45;&#45;Monad_plus</title>
<path fill="none" stroke="gray" stroke-dasharray="1,5" d="M504.06,-145.49C524.41,-135.18 551.49,-121.16 575,-108 617.78,-84.06 666.28,-54.39 695.75,-36.08"/>
</g>
<!-- Foldable -->
<g id="node12" class="node">
<title>Foldable</title>
<polygon fill="black" stroke="transparent" points="566,-108 498,-108 498,-72 566,-72 566,-108"/>
<text text-anchor="middle" x="532" y="-86.3" font-family="Helvetica,sans-Serif" font-size="14.00" fill="white">Foldable</text>
</g>
<!-- Monoid&#45;&#45;Foldable -->
<g id="edge13" class="edge">
<title>Monoid&#45;&#45;Foldable</title>
<path fill="none" stroke="gray" d="M487.58,-143.7C496.73,-132.85 508.47,-118.92 517.58,-108.1"/>
</g>
<!-- Category -->
<g id="node23" class="node">
<title>Category</title>
<polygon fill="black" stroke="transparent" points="335.5,-252 264.5,-252 264.5,-216 335.5,-216 335.5,-252"/>
<text text-anchor="middle" x="300" y="-230.3" font-family="Helvetica,sans-Serif" font-size="14.00" fill="white">Category</text>
</g>
<!-- Monoid&#45;&#45;Category -->
<g id="edge29" class="edge">
<title>Monoid&#45;&#45;Category</title>
<path fill="none" stroke="gray" stroke-dasharray="1,5" d="M441.84,-175.61C412.04,-187.67 367.12,-205.84 335.85,-218.5"/>
</g>
<!-- Arrow_plus -->
<g id="node30" class="node">
<title>Arrow_plus</title>
<polygon fill="black" stroke="transparent" points="302,-36 218,-36 218,0 302,0 302,-36"/>
<text text-anchor="middle" x="260" y="-14.3" font-family="Helvetica,sans-Serif" font-size="14.00" fill="white">Arrow_plus</text>
</g>
<!-- Monoid&#45;&#45;Arrow_plus -->
<g id="edge42" class="edge">
<title>Monoid&#45;&#45;Arrow_plus</title>
<path fill="none" stroke="gray" stroke-dasharray="1,5" d="M473.6,-143.83C473.33,-123.9 469.75,-91.29 451,-72 412.02,-31.9 345.57,-21.35 302.23,-19"/>
</g>
<!-- Free_selective&#45;&#45;Selective -->
<g id="edge17" class="edge">
<title>Free_selective&#45;&#45;Selective</title>
<path fill="none" stroke="gray" d="M696,-215.7C696,-204.85 696,-190.92 696,-180.1"/>
</g>
<!-- Free_applicative&#45;&#45;Applicative -->
<g id="edge18" class="edge">
<title>Free_applicative&#45;&#45;Applicative</title>
<path fill="none" stroke="gray" d="M556.39,-287.7C562.28,-276.85 569.85,-262.92 575.71,-252.1"/>
</g>
<!-- Free_monad&#45;&#45;Monad -->
<g id="edge19" class="edge">
<title>Free_monad&#45;&#45;Monad</title>
<path fill="none" stroke="gray" d="M797,-143.7C797,-132.85 797,-118.92 797,-108.1"/>
</g>
<!-- Freer_monad -->
<g id="node16" class="node">
<title>Freer_monad</title>
<polygon fill="black" stroke="transparent" points="960,-180 862,-180 862,-144 960,-144 960,-180"/>
<text text-anchor="middle" x="911" y="-158.3" font-family="Helvetica,sans-Serif" font-size="14.00" fill="white">Freer_monad</text>
</g>
<!-- Freer_monad&#45;&#45;Monad -->
<g id="edge20" class="edge">
<title>Freer_monad&#45;&#45;Monad</title>
<path fill="none" stroke="gray" d="M883.11,-143.88C865.45,-133.03 842.68,-119.05 824.99,-108.19"/>
</g>
<!-- Strong -->
<g id="node25" class="node">
<title>Strong</title>
<polygon fill="black" stroke="transparent" points="246,-252 190,-252 190,-216 246,-216 246,-252"/>
<text text-anchor="middle" x="218" y="-230.3" font-family="Helvetica,sans-Serif" font-size="14.00" fill="white">Strong</text>
</g>
<!-- Profunctor&#45;&#45;Strong -->
<g id="edge31" class="edge">
<title>Profunctor&#45;&#45;Strong</title>
<path fill="none" stroke="gray" d="M189.39,-287.7C195.28,-276.85 202.85,-262.92 208.71,-252.1"/>
</g>
<!-- Choice -->
<g id="node26" class="node">
<title>Choice</title>
<polygon fill="black" stroke="transparent" points="94.5,-252 35.5,-252 35.5,-216 94.5,-216 94.5,-252"/>
<text text-anchor="middle" x="65" y="-230.3" font-family="Helvetica,sans-Serif" font-size="14.00" fill="white">Choice</text>
</g>
<!-- Profunctor&#45;&#45;Choice -->
<g id="edge32" class="edge">
<title>Profunctor&#45;&#45;Choice</title>
<path fill="none" stroke="gray" d="M151.87,-287.88C134.05,-277.03 111.08,-263.05 93.24,-252.19"/>
</g>
<!-- Closed -->
<g id="node27" class="node">
<title>Closed</title>
<polygon fill="black" stroke="transparent" points="171.5,-252 112.5,-252 112.5,-216 171.5,-216 171.5,-252"/>
<text text-anchor="middle" x="142" y="-230.3" font-family="Helvetica,sans-Serif" font-size="14.00" fill="white">Closed</text>
</g>
<!-- Profunctor&#45;&#45;Closed -->
<g id="edge33" class="edge">
<title>Profunctor&#45;&#45;Closed</title>
<path fill="none" stroke="gray" d="M170.61,-287.7C164.72,-276.85 157.15,-262.92 151.29,-252.1"/>
</g>
<!-- Arrow -->
<g id="node24" class="node">
<title>Arrow</title>
<polygon fill="black" stroke="transparent" points="245,-180 191,-180 191,-144 245,-144 245,-180"/>
<text text-anchor="middle" x="218" y="-158.3" font-family="Helvetica,sans-Serif" font-size="14.00" fill="white">Arrow</text>
</g>
<!-- Category&#45;&#45;Arrow -->
<g id="edge30" class="edge">
<title>Category&#45;&#45;Arrow</title>
<path fill="none" stroke="gray" d="M279.73,-215.7C267.02,-204.85 250.7,-190.92 238.04,-180.1"/>
</g>
<!-- Arrow_zero -->
<g id="node28" class="node">
<title>Arrow_zero</title>
<polygon fill="black" stroke="transparent" points="86,-108 0,-108 0,-72 86,-72 86,-108"/>
<text text-anchor="middle" x="43" y="-86.3" font-family="Helvetica,sans-Serif" font-size="14.00" fill="white">Arrow_zero</text>
</g>
<!-- Arrow&#45;&#45;Arrow_zero -->
<g id="edge35" class="edge">
<title>Arrow&#45;&#45;Arrow_zero</title>
<path fill="none" stroke="gray" d="M190.66,-150.06C162.59,-138.83 118.51,-121.2 85.81,-108.12"/>
</g>
<!-- Arrow&#45;&#45;Arrow_alt -->
<g id="edge36" class="edge">
<title>Arrow&#45;&#45;Arrow_alt</title>
<path fill="none" stroke="gray" d="M245.19,-150.82C277.51,-138.73 331.59,-118.48 367.77,-104.94"/>
</g>
<!-- Arrow&#45;&#45;Arrow_plus -->
<g id="edge37" class="edge">
<title>Arrow&#45;&#45;Arrow_plus</title>
<path fill="none" stroke="gray" d="M190.82,-152.18C170.88,-144.12 145.24,-130.05 133,-108 125.24,-94.01 124.13,-85.32 133,-72 151.74,-43.87 188.57,-30.64 217.76,-24.44"/>
</g>
<!-- Arrow_choice -->
<g id="node31" class="node">
<title>Arrow_choice</title>
<polygon fill="black" stroke="transparent" points="240,-108 142,-108 142,-72 240,-72 240,-108"/>
<text text-anchor="middle" x="191" y="-86.3" font-family="Helvetica,sans-Serif" font-size="14.00" fill="white">Arrow_choice</text>
</g>
<!-- Arrow&#45;&#45;Arrow_choice -->
<g id="edge38" class="edge">
<title>Arrow&#45;&#45;Arrow_choice</title>
<path fill="none" stroke="gray" d="M211.33,-143.7C207.14,-132.85 201.77,-118.92 197.6,-108.1"/>
</g>
<!-- Arrow_apply -->
<g id="node32" class="node">
<title>Arrow_apply</title>
<polygon fill="black" stroke="transparent" points="350,-108 258,-108 258,-72 350,-72 350,-108"/>
<text text-anchor="middle" x="304" y="-86.3" font-family="Helvetica,sans-Serif" font-size="14.00" fill="white">Arrow_apply</text>
</g>
<!-- Arrow&#45;&#45;Arrow_apply -->
<g id="edge39" class="edge">
<title>Arrow&#45;&#45;Arrow_apply</title>
<path fill="none" stroke="gray" d="M239.26,-143.7C252.59,-132.85 269.7,-118.92 282.99,-108.1"/>
</g>
<!-- Strong&#45;&#45;Arrow -->
<g id="edge34" class="edge">
<title>Strong&#45;&#45;Arrow</title>
<path fill="none" stroke="gray" d="M218,-215.7C218,-204.85 218,-190.92 218,-180.1"/>
</g>
<!-- Arrow_zero&#45;&#45;Arrow_plus -->
<g id="edge40" class="edge">
<title>Arrow_zero&#45;&#45;Arrow_plus</title>
<path fill="none" stroke="gray" stroke-dasharray="1,5" d="M86.13,-75.09C124.32,-62.77 179.75,-44.89 217.69,-32.65"/>
</g>
<!-- Arrow_alt&#45;&#45;Arrow_plus -->
<g id="edge41" class="edge">
<title>Arrow_alt&#45;&#45;Arrow_plus</title>
<path fill="none" stroke="gray" stroke-dasharray="1,5" d="M369.53,-71.88C346.98,-60.99 317.89,-46.95 295.36,-36.07"/>
</g>
</g>
</svg>
